<svg xmlns="http://www.w3.org/2000/svg" xmlns:xlink="http://www.w3.org/1999/xlink" width="940" zoomAndPan="magnify" viewBox="0 0 705 591.000005" height="788" preserveAspectRatio="xMidYMid meet" version="1.0"><path fill="#f69552" d="M 148.25 205.886719 C 141.523438 215.722656 139.761719 224.054688 139.445312 229.96875 C 138.121094 254.21875 159.457031 266.074219 160.550781 293.605469 C 160.984375 304.792969 157.910156 314.0625 155.269531 320.121094 C 148.601562 305.378906 140.269531 297.785156 134.164062 293.605469 C 119.023438 283.265625 105.136719 285.542969 91.957031 272.398438 C 86.171875 266.636719 83.046875 260.425781 81.40625 256.484375 C 72.402344 276.402344 73.527344 290.132812 76.125 298.910156 C 82.976562 322.066406 104.867188 327.054688 113.0625 351.949219 C 117.789062 366.328125 115.539062 380.046875 113.0625 389.0625 C 107.554688 382.96875 98.929688 374.824219 86.675781 367.851562 C 76.6875 362.171875 67.390625 359.039062 60.289062 357.242188 C 60.03125 367.699219 59.925781 416.371094 97.226562 458.011719 C 135.5625 500.792969 185.574219 505.089844 196.78125 505.699219 L 196.828125 505.675781 L 244.144531 275.824219 L 244.15625 275.824219 C 263.761719 186.652344 240.625 152.058594 148.25 205.886719 Z M 148.25 205.886719 " fill-opacity="1" fill-rule="nonzero"/><path fill="#20bab6" d="M 642.132812 120.761719 C 644.5625 131.03125 631.652344 145.960938 607.144531 154.714844 C 605.558594 128.625 614.1875 110.832031 624.539062 109.058594 C 631.546875 107.851562 640.488281 113.800781 642.132812 120.761719 Z M 642.132812 120.761719 " fill-opacity="1" fill-rule="nonzero"/><path fill="#20bab6" d="M 593.210938 86.78125 C 600.863281 94 598.292969 113.625 582.660156 134.515625 C 567.015625 113.625 564.445312 94 572.109375 86.78125 C 577.296875 81.890625 588.023438 81.890625 593.210938 86.78125 Z M 593.210938 86.78125 " fill-opacity="1" fill-rule="nonzero"/><path fill="#1a8981" d="M 527.953125 271.765625 C 524 256.652344 516.675781 257.597656 509.066406 263.300781 C 509.605469 265.859375 509.875 268.5 509.875 271.226562 C 509.875 292.375 492.894531 309.53125 471.882812 309.675781 L 471.871094 309.6875 C 464.488281 326.574219 470.878906 336.578125 490.921875 339.542969 L 490.945312 339.53125 C 515.542969 348.199219 528.691406 338.136719 528.808594 306.75 Z M 527.953125 271.765625 " fill-opacity="1" fill-rule="nonzero"/><path fill="#1da099" d="M 548 326.28125 L 548.011719 326.269531 C 557.886719 303.875 545.121094 302.972656 528.808594 306.75 C 525.253906 324.847656 509.78125 338.652344 490.945312 339.53125 L 490.921875 339.542969 L 504.851562 379.027344 L 504.863281 379.027344 C 542.9375 386.9375 565.636719 369.367188 548 326.28125 Z M 548 326.28125 " fill-opacity="1" fill-rule="nonzero"/><path fill="#20bab6" d="M 630.148438 267.09375 C 630.148438 248.527344 618.269531 232.765625 601.757812 227 C 603.058594 222.929688 603.765625 218.574219 603.765625 214.054688 C 603.765625 192.109375 587.179688 174.046875 565.910156 171.863281 L 565.898438 171.863281 L 493.832031 238.609375 C 495.886719 248.5625 501.402344 257.234375 509.066406 263.300781 C 514.453125 267.574219 520.910156 270.542969 527.953125 271.765625 C 525.804688 276.847656 524.617188 282.433594 524.617188 288.300781 C 524.617188 294.921875 526.121094 301.175781 528.808594 306.75 C 532.882812 315.203125 539.65625 322.089844 548.011719 326.269531 L 548 326.28125 C 547.742188 352.300781 529.3125 373.945312 504.863281 379.027344 L 504.851562 379.027344 L 479.96875 510.429688 C 484.253906 510.839844 488.585938 511.039062 492.964844 511.039062 C 568.726562 511.039062 630.148438 449.304688 630.148438 373.15625 C 630.148438 347.40625 623.128906 323.3125 610.898438 302.691406 C 622.484375 295.132812 630.148438 282.011719 630.148438 267.09375 Z M 630.148438 267.09375 " fill-opacity="1" fill-rule="nonzero"/><path fill="#1ea6bc" d="M 490.921875 339.542969 C 485.617188 328.898438 479.21875 318.898438 471.871094 309.6875 C 460.167969 294.957031 446.0625 282.234375 430.144531 272.105469 L 430.144531 272.09375 C 425.808594 265.4375 421.207031 262.316406 416.023438 271.789062 C 376.976562 278.121094 380.65625 297.09375 397.984375 320.121094 L 391.695312 413.390625 C 408.691406 427.410156 430.789062 426.25 454.628906 404.988281 L 502.011719 367.851562 C 499.148438 358.015625 495.429688 348.546875 490.921875 339.542969 Z M 490.921875 339.542969 " fill-opacity="1" fill-rule="nonzero"/><path fill="#1ea6bc" d="M 387.433594 351.949219 L 350.496094 351.949219 L 171.535156 403.472656 C 171.242188 407.476562 171.101562 411.511719 171.101562 415.585938 C 171.101562 448.683594 180.527344 479.574219 196.828125 505.675781 C 197.96875 507.484375 199.128906 509.28125 200.328125 511.039062 C 250.042969 555.191406 314.179688 574.585938 387.328125 578.515625 C 421.367188 568.527344 450.945312 548.070312 472.398438 520.839844 L 491.484375 490.488281 C 494.933594 483.457031 497.917969 476.160156 500.382812 468.613281 Z M 387.433594 351.949219 " fill-opacity="1" fill-rule="nonzero"/><path fill="#1ea6bc" d="M 332.289062 277.1875 L 332.277344 277.1875 L 289.285156 325.578125 C 296.625 343.027344 315.761719 346.832031 339.945312 337.808594 C 369.222656 323.800781 381.191406 303.378906 364.378906 272.292969 C 350.339844 259.601562 339.175781 261.234375 332.289062 277.1875 Z M 332.289062 277.1875 " fill-opacity="1" fill-rule="nonzero"/><path fill="#655f68" d="M 565.898438 171.863281 C 563.878906 160.558594 558.515625 149.738281 549.832031 140.996094 C 541.179688 132.308594 530.5 126.945312 519.3125 124.878906 C 519.570312 109.621094 513.925781 94.292969 502.339844 82.652344 C 480.25 60.457031 444.792969 59.894531 422.023438 80.972656 C 414.96875 56.75 392.703125 39.050781 366.328125 39.050781 C 350.4375 39.050781 336.035156 45.46875 325.554688 55.867188 C 222.550781 59 229.277344 280.316406 332.277344 277.1875 L 332.289062 277.1875 C 343.125 278.628906 354.285156 277 364.378906 272.292969 C 379 286.875 396.695312 283.972656 416.023438 271.789062 C 420.695312 272.457031 425.449219 272.574219 430.144531 272.09375 C 443.019531 270.8125 455.542969 265.214844 465.402344 255.308594 C 471.988281 248.691406 476.648438 240.875 479.40625 232.5625 C 483.972656 235.261719 488.832031 237.28125 493.832031 238.609375 C 513.175781 243.773438 534.65625 238.738281 549.832031 223.492188 C 563.796875 209.441406 569.164062 190.03125 565.898438 171.863281 Z M 565.898438 171.863281 " fill-opacity="1" fill-rule="nonzero"/><path fill="#6fceae" d="M 508.785156 415.585938 C 508.785156 422.722656 508.351562 429.75 507.492188 436.664062 C 506.144531 447.671875 503.726562 458.367188 500.382812 468.613281 L 456.027344 468.613281 C 403.570312 468.613281 361.046875 454.363281 361.046875 436.792969 C 361.046875 429.796875 367.785156 423.332031 379.203125 418.085938 C 378.429688 424.316406 377.65625 430.5625 376.882812 436.792969 C 381.824219 428.988281 386.765625 421.195312 391.695312 413.390625 C 408.300781 408.273438 430.355469 405.105469 454.628906 404.988281 C 442.550781 401.101562 434.921875 395.410156 434.921875 389.0625 C 434.921875 377.347656 460.910156 367.851562 492.964844 367.851562 L 502.011719 367.851562 C 503.082031 371.527344 504.03125 375.257812 504.851562 379.027344 C 507.433594 390.796875 508.785156 403.039062 508.785156 415.585938 Z M 508.785156 415.585938 " fill-opacity="1" fill-rule="nonzero"/><path fill="#6fceae" d="M 482.410156 489.832031 C 485.570312 489.832031 488.609375 490.054688 491.484375 490.488281 C 488.09375 497.414062 484.242188 504.078125 479.96875 510.429688 C 477.574219 513.996094 475.050781 517.472656 472.398438 520.839844 C 459.816406 518.726562 450.742188 512.765625 450.742188 505.734375 C 450.742188 496.957031 464.921875 489.832031 482.410156 489.832031 Z M 482.410156 489.832031 " fill-opacity="1" fill-rule="nonzero"/><path fill="#ffc05a" d="M 450.742188 320.121094 C 431.058594 351.210938 411.375 382.3125 391.695312 413.390625 C 386.765625 421.195312 381.824219 428.988281 376.882812 436.792969 C 377.65625 430.5625 378.429688 424.316406 379.203125 418.085938 C 381.941406 396.03125 384.6875 373.992188 387.433594 351.949219 L 334.660156 351.949219 L 339.945312 337.808594 L 364.378906 272.292969 C 370.402344 269.488281 376.023438 265.589844 380.988281 260.613281 C 382.28125 259.3125 383.488281 257.949219 384.640625 256.566406 C 393.617188 265.050781 404.617188 270.121094 416.023438 271.789062 C 410.003906 287.902344 403.996094 304.003906 397.984375 320.121094 Z M 450.742188 320.121094 " fill-opacity="1" fill-rule="nonzero"/><path fill="#6fceae" d="M 387.433594 489.832031 C 404.910156 489.832031 419.089844 496.957031 419.089844 505.734375 C 419.089844 514.527344 404.910156 521.648438 387.433594 521.648438 C 369.945312 521.648438 355.777344 514.527344 355.777344 505.734375 C 355.777344 496.957031 369.945312 489.832031 387.433594 489.832031 Z M 387.433594 489.832031 " fill-opacity="1" fill-rule="nonzero"/><path fill="#6fceae" d="M 293.851562 548.175781 C 344.191406 548.421875 385.0625 561.777344 387.328125 578.515625 C 372.292969 582.925781 356.398438 585.285156 339.945312 585.285156 C 281.902344 585.285156 230.714844 555.863281 200.328125 511.039062 L 255.515625 511.039062 C 287.570312 511.039062 313.558594 520.535156 313.558594 532.246094 C 313.558594 538.597656 305.929688 544.289062 293.851562 548.175781 Z M 293.851562 548.175781 " fill-opacity="1" fill-rule="nonzero"/><path fill="#6fceae" d="M 350.496094 351.949219 L 334.660156 351.949219 L 339.945312 337.808594 C 329.027344 331.128906 310.625 326.457031 289.285156 325.578125 L 289.273438 325.578125 C 274.855469 303.390625 261.199219 274.296875 244.15625 275.824219 L 244.144531 275.824219 C 203.121094 304.285156 175.246094 350.53125 171.535156 403.472656 C 183.753906 410.75 205 415.585938 229.144531 415.585938 C 267.019531 415.585938 297.734375 403.707031 297.734375 389.0625 C 297.734375 385.1875 295.566406 381.503906 291.691406 378.191406 C 324.929688 376.351562 350.496094 365.304688 350.496094 351.949219 Z M 350.496094 351.949219 " fill-opacity="1" fill-rule="nonzero"/><path fill="#e7f2f1" d="M 124.867188 189.609375 C 109.117188 191.261719 97.519531 188.492188 92.34375 180.652344 C 77.800781 158.71875 119.117188 105.398438 184.601562 61.574219 C 250.09375 17.75 314.964844 0.00390625 329.496094 21.949219 C 334.683594 29.777344 332.761719 41.585938 325.167969 55.550781 C 325.296875 55.644531 325.425781 55.75 325.554688 55.867188 C 327.089844 57.113281 328.40625 58.554688 329.484375 60.1875 C 335.050781 68.589844 333.582031 80.820312 326.503906 94.8125 C 326.503906 94.824219 326.503906 94.824219 326.503906 94.824219 C 327.609375 95.925781 328.59375 97.125 329.460938 98.425781 C 335.554688 107.628906 334.589844 120.492188 328.03125 134.597656 L 328.019531 134.609375 C 328.230469 134.878906 328.417969 135.148438 328.605469 135.417969 C 333.289062 142.472656 333.476562 151.804688 329.976562 162.003906 L 329.660156 163.023438 L 329.660156 163.035156 C 333.40625 164.210938 336.316406 166.207031 338.195312 169.035156 C 343.59375 177.179688 339.273438 190.570312 328.125 205.054688 L 328.125 205.066406 C 334.003906 205.675781 338.558594 207.847656 341.105469 211.695312 C 347.5625 221.449219 339.191406 238.984375 321.925781 254.757812 C 330.238281 263.171875 332.042969 270.214844 332.277344 274.933594 C 332.3125 275.695312 332.3125 276.449219 332.277344 277.1875 C 331.960938 284.160156 328.40625 290.273438 323.066406 296.140625 C 314.425781 305.660156 301.117188 314.566406 289.285156 325.578125 L 289.273438 325.578125 C 278.109375 335.964844 268.273438 348.21875 264.917969 364.613281 C 262.230469 377.734375 264.578125 389.144531 266.363281 395.503906 C 258.144531 390.363281 242.558594 378.757812 235.644531 358.722656 C 227.3125 334.554688 234.226562 305.71875 253.484375 282.292969 L 253.472656 282.28125 C 249.519531 281.234375 246.421875 279.277344 244.472656 276.355469 C 244.355469 276.175781 244.25 276.011719 244.15625 275.824219 C 241.902344 272.046875 241.761719 267.1875 243.402344 261.753906 L 243.390625 261.753906 C 225.796875 266.519531 211.832031 265.355469 206.441406 257.210938 C 202.535156 251.320312 203.71875 242.65625 208.917969 232.835938 L 208.90625 232.824219 L 207.722656 232.28125 C 203.132812 230.359375 199.414062 227.46875 196.855469 223.597656 C 196.664062 223.316406 196.488281 223.035156 196.3125 222.753906 C 180.832031 223.386719 168.660156 219.3125 162.570312 210.113281 C 161.710938 208.808594 160.984375 207.4375 160.398438 205.992188 C 156.03125 206.308594 151.957031 206.285156 148.25 205.886719 C 138.695312 204.878906 131.453125 201.4375 127.449219 195.382812 C 126.289062 193.621094 125.433594 191.683594 124.867188 189.609375 Z M 124.867188 189.609375 " fill-opacity="1" fill-rule="nonzero"/><path fill="#6fceae" d="M 234.414062 447.402344 C 251.902344 447.402344 266.070312 454.527344 266.070312 463.308594 C 266.070312 472.097656 251.902344 479.222656 234.414062 479.222656 C 216.9375 479.222656 202.757812 472.097656 202.757812 463.308594 C 202.757812 454.527344 216.9375 447.402344 234.414062 447.402344 Z M 234.414062 447.402344 " fill-opacity="1" fill-rule="nonzero"/><path fill="#1498b7" d="M 502.011719 367.851562 L 492.964844 367.851562 C 488.328125 367.851562 483.808594 368.050781 479.488281 368.4375 C 478.890625 364.027344 478.105469 359.660156 477.164062 355.363281 C 476.34375 351.597656 475.390625 347.863281 474.324219 344.191406 C 471.460938 334.355469 467.738281 324.882812 463.234375 315.882812 C 457.925781 305.238281 451.53125 295.238281 444.183594 286.023438 C 441.214844 282.28125 438.078125 278.664062 434.804688 275.191406 C 448.820312 284.769531 461.320312 296.410156 471.871094 309.6875 C 479.21875 318.898438 485.617188 328.898438 490.921875 339.542969 C 495.429688 348.546875 499.148438 358.015625 502.011719 367.851562 Z M 502.011719 367.851562 " fill-opacity="1" fill-rule="nonzero"/><path fill="#53b79a" d="M 504.851562 379.027344 C 507.433594 390.796875 508.785156 403.039062 508.785156 415.585938 C 508.785156 422.722656 508.351562 429.75 507.492188 436.664062 C 506.144531 447.671875 503.726562 458.367188 500.382812 468.613281 L 462.902344 468.613281 C 463.210938 468.023438 463.503906 467.425781 463.796875 466.828125 C 467.246094 459.796875 470.226562 452.496094 472.691406 444.949219 C 476.039062 434.703125 478.457031 424.011719 479.804688 413.003906 C 480.664062 406.089844 481.097656 399.058594 481.097656 391.925781 C 481.097656 383.957031 480.558594 376.113281 479.488281 368.4375 C 483.808594 368.050781 488.328125 367.851562 492.964844 367.851562 L 502.011719 367.851562 C 503.082031 371.527344 504.03125 375.257812 504.851562 379.027344 Z M 504.851562 379.027344 " fill-opacity="1" fill-rule="nonzero"/><path fill="#53b79a" d="M 482.410156 489.832031 C 485.570312 489.832031 488.609375 490.054688 491.484375 490.488281 C 488.09375 497.414062 484.242188 504.078125 479.96875 510.429688 C 477.574219 513.996094 475.050781 517.472656 472.398438 520.839844 C 459.816406 518.726562 450.742188 512.765625 450.742188 505.734375 C 450.742188 496.957031 464.921875 489.832031 482.410156 489.832031 Z M 482.410156 489.832031 " fill-opacity="1" fill-rule="nonzero"/><path fill="#1498b7" d="M 462.902344 468.613281 L 500.382812 468.613281 C 497.917969 476.160156 494.933594 483.457031 491.484375 490.488281 C 488.609375 490.054688 485.570312 489.832031 482.410156 489.832031 C 464.921875 489.832031 450.742188 496.957031 450.742188 505.734375 C 450.742188 512.765625 459.816406 518.726562 472.398438 520.839844 C 450.945312 548.070312 421.367188 568.527344 387.328125 578.515625 C 386.117188 569.582031 373.921875 561.613281 355.15625 556.097656 C 356.65625 555.710938 358.148438 555.285156 359.640625 554.851562 C 393.675781 544.863281 423.253906 524.40625 444.710938 497.179688 C 447.363281 493.808594 449.886719 490.335938 452.28125 486.769531 C 456.191406 480.96875 459.734375 474.902344 462.902344 468.613281 Z M 462.902344 468.613281 " fill-opacity="1" fill-rule="nonzero"/><path fill="#53b79a" d="M 387.328125 578.515625 C 372.292969 582.925781 356.398438 585.285156 339.945312 585.285156 C 291.703125 585.285156 248.203125 564.957031 217.441406 532.367188 C 244.472656 550.828125 277.101562 561.625 312.253906 561.625 C 327.089844 561.625 341.457031 559.710938 355.15625 556.097656 C 373.921875 561.613281 386.117188 569.582031 387.328125 578.515625 Z M 387.328125 578.515625 " fill-opacity="1" fill-rule="nonzero"/><path fill="#3a322b" d="M 646.707031 119.679688 C 644.507812 110.371094 633.128906 102.824219 623.738281 104.429688 C 609.777344 106.828125 600.824219 128.097656 602.453125 155.003906 C 602.542969 156.476562 603.320312 157.824219 604.554688 158.636719 C 605.332031 159.148438 606.230469 159.414062 607.140625 159.414062 C 607.671875 159.414062 608.207031 159.324219 608.71875 159.140625 C 633.996094 150.109375 649.972656 133.515625 646.707031 119.679688 Z M 611.640625 147.898438 C 611.761719 126.183594 619.511719 114.683594 625.328125 113.683594 C 625.683594 113.625 626.046875 113.59375 626.425781 113.59375 C 630.867188 113.59375 636.585938 117.675781 637.570312 121.835938 C 638.929688 127.613281 631.449219 139.289062 611.640625 147.898438 Z M 611.640625 147.898438 " fill-opacity="1" fill-rule="nonzero"/><path fill="#3a322b" d="M 582.65625 139.207031 C 584.136719 139.207031 585.53125 138.507812 586.414062 137.324219 C 602.539062 115.789062 606.75 93.097656 596.429688 83.367188 C 589.480469 76.8125 575.832031 76.8125 568.882812 83.367188 C 558.566406 93.097656 562.777344 115.789062 578.898438 137.324219 C 579.785156 138.507812 581.175781 139.207031 582.65625 139.207031 Z M 575.324219 90.199219 C 577.003906 88.617188 579.832031 87.824219 582.65625 87.824219 C 585.484375 87.824219 588.308594 88.617188 589.988281 90.199219 C 594.296875 94.257812 594.460938 108.148438 582.65625 126.320312 C 570.855469 108.148438 571.019531 94.257812 575.324219 90.199219 Z M 575.324219 90.199219 " fill-opacity="1" fill-rule="nonzero"/><path fill="#3a322b" d="M 234.417969 442.707031 C 213.691406 442.707031 198.0625 451.566406 198.0625 463.3125 C 198.0625 475.058594 213.691406 483.917969 234.417969 483.917969 C 255.140625 483.917969 270.769531 475.058594 270.769531 463.3125 C 270.769531 451.566406 255.140625 442.707031 234.417969 442.707031 Z M 234.417969 474.527344 C 217.957031 474.527344 207.453125 467.886719 207.453125 463.3125 C 207.453125 458.738281 217.957031 452.097656 234.417969 452.097656 C 250.875 452.097656 261.378906 458.738281 261.378906 463.3125 C 261.378906 467.886719 250.875 474.527344 234.417969 474.527344 Z M 234.417969 474.527344 " fill-opacity="1" fill-rule="nonzero"/><path fill="#3a322b" d="M 387.429688 485.132812 C 366.707031 485.132812 351.078125 493.992188 351.078125 505.738281 C 351.078125 517.484375 366.707031 526.34375 387.429688 526.34375 C 408.15625 526.34375 423.785156 517.484375 423.785156 505.738281 C 423.785156 493.992188 408.15625 485.132812 387.429688 485.132812 Z M 387.429688 516.953125 C 370.972656 516.953125 360.46875 510.3125 360.46875 505.738281 C 360.46875 501.164062 370.972656 494.523438 387.429688 494.523438 C 403.890625 494.523438 414.394531 501.164062 414.394531 505.738281 C 414.394531 510.308594 403.890625 516.953125 387.429688 516.953125 Z M 387.429688 516.953125 " fill-opacity="1" fill-rule="nonzero"/><path fill="#3a322b" d="M 634.839844 267.09375 C 634.839844 248.507812 623.960938 231.789062 607.363281 224.203125 C 608.089844 220.882812 608.457031 217.484375 608.457031 214.058594 C 608.457031 190.972656 592.0625 171.617188 569.800781 167.675781 C 567.21875 156.675781 561.675781 146.242188 553.160156 137.679688 C 545.042969 129.523438 535.011719 123.835938 523.960938 121.082031 C 523.285156 105.300781 516.871094 90.601562 505.671875 79.34375 C 483.460938 57.023438 448.898438 54.777344 424.203125 73.074219 C 414.550781 49.96875 391.664062 34.359375 366.324219 34.359375 C 355.425781 34.359375 344.941406 37.15625 335.679688 42.382812 C 338.648438 31.203125 336.417969 23.882812 333.417969 19.351562 C 329.847656 13.964844 323.988281 10.421875 316 8.816406 C 287.921875 3.1875 234.070312 22.820312 181.992188 57.671875 C 149.910156 79.140625 122.476562 103.566406 104.75 126.445312 C 85.996094 150.65625 80.195312 170.828125 88.421875 183.25 C 92.058594 188.738281 99.875 194.757812 116.65625 194.757812 C 118.246094 194.757812 119.925781 194.695312 121.679688 194.582031 C 122.210938 195.761719 122.820312 196.898438 123.539062 197.980469 C 127.207031 203.519531 133.027344 207.308594 140.714844 209.292969 C 137.136719 216.007812 135.125 222.851562 134.753906 229.714844 C 134.011719 243.316406 139.671875 253.386719 145.152344 263.128906 C 150.171875 272.058594 155.363281 281.289062 155.855469 293.792969 C 156.046875 298.613281 155.535156 303.496094 154.328125 308.390625 C 149.480469 300.632812 143.617188 294.378906 136.8125 289.730469 C 129.632812 284.828125 122.910156 282.609375 116.414062 280.464844 C 108.621094 277.894531 101.890625 275.675781 95.265625 269.070312 C 91.269531 265.085938 88.0625 260.242188 85.730469 254.671875 C 85.007812 252.949219 83.332031 251.816406 81.464844 251.792969 C 79.625 251.746094 77.890625 252.847656 77.121094 254.550781 C 69.496094 271.425781 67.644531 286.796875 71.621094 300.242188 C 75.367188 312.910156 83.136719 320.574219 90.65625 327.988281 C 97.945312 335.179688 104.832031 341.972656 108.597656 353.410156 C 111.230469 361.414062 111.808594 370.179688 110.324219 379.558594 C 103.867188 373.457031 96.722656 368.164062 88.996094 363.773438 C 80.363281 358.859375 71.09375 355.132812 61.445312 352.695312 C 60.0625 352.34375 58.59375 352.644531 57.457031 353.507812 C 56.320312 354.367188 55.636719 355.703125 55.601562 357.128906 C 55.148438 375.101562 57.960938 421.214844 93.730469 461.140625 C 130.089844 501.722656 177.382812 508.964844 194.253906 510.238281 C 225.210938 558.191406 278.949219 589.980469 339.941406 589.980469 C 398.75 589.980469 450.8125 560.425781 482.214844 515.324219 C 485.777344 515.59375 489.378906 515.734375 492.957031 515.734375 C 571.191406 515.734375 634.839844 451.773438 634.839844 373.15625 C 634.839844 348.898438 628.707031 325.089844 617.070312 304.023438 C 628.269531 295.117188 634.839844 281.613281 634.839844 267.09375 Z M 333.394531 57.59375 C 333.050781 57.074219 332.660156 56.59375 332.28125 56.101562 C 341.835938 48.109375 353.757812 43.75 366.324219 43.75 C 389.851562 43.75 410.902344 59.59375 417.511719 82.285156 C 417.964844 83.847656 419.199219 85.0625 420.765625 85.496094 C 422.332031 85.933594 424.015625 85.523438 425.207031 84.417969 C 446.304688 64.894531 478.722656 65.574219 499.011719 85.96875 C 509.320312 96.328125 514.863281 110.121094 514.621094 124.800781 C 514.582031 127.09375 516.210938 129.078125 518.464844 129.496094 C 529.125 131.464844 538.820312 136.585938 546.5 144.304688 C 567.3125 165.222656 567.3125 199.261719 546.5 220.179688 C 529.320312 237.445312 502.710938 240.878906 481.792969 228.523438 C 480.570312 227.800781 479.089844 227.671875 477.757812 228.167969 C 476.429688 228.664062 475.398438 229.738281 474.949219 231.085938 C 472.3125 239.023438 467.980469 246.0625 462.074219 252 C 441.574219 272.601562 408.976562 273.109375 387.859375 253.15625 C 386.917969 252.261719 385.652344 251.804688 384.347656 251.882812 C 383.050781 251.960938 381.84375 252.578125 381.015625 253.578125 C 379.894531 254.9375 378.796875 256.152344 377.652344 257.300781 C 366.75 268.257812 352.046875 273.8125 336.8125 272.898438 C 336.089844 266.804688 333.289062 260.824219 328.464844 255.011719 C 345.808594 237.847656 352.308594 220.121094 345.011719 209.101562 C 342.921875 205.945312 339.851562 203.609375 335.988281 202.125 C 345.621094 187.597656 347.824219 175.078125 342.109375 166.445312 C 340.4375 163.925781 338.164062 161.917969 335.375 160.398438 C 338.191406 150.332031 337.503906 141.351562 333.347656 134.179688 C 339.867188 118.910156 339.894531 105.691406 333.371094 95.839844 C 332.964844 95.230469 332.527344 94.648438 332.078125 94.074219 C 338.921875 79.210938 339.386719 66.644531 333.394531 57.59375 Z M 523.871094 307.230469 C 520.414062 321.824219 508.421875 332.648438 493.730469 334.574219 C 489.894531 327.21875 485.546875 320.136719 480.6875 313.394531 C 499.699219 309.261719 514.082031 292.402344 514.546875 272.234375 C 516.867188 273.382812 519.273438 274.367188 521.78125 275.121094 C 520.542969 279.378906 519.921875 283.796875 519.921875 288.304688 C 519.921875 294.996094 521.328125 301.40625 523.871094 307.230469 Z M 375.292969 441.214844 C 375.8125 441.398438 376.347656 441.488281 376.878906 441.488281 C 378.453125 441.488281 379.964844 440.695312 380.847656 439.304688 L 394.71875 417.394531 C 411.265625 412.527344 432.449219 409.789062 454.648438 409.683594 C 456.957031 409.671875 458.914062 407.984375 459.269531 405.703125 C 459.621094 403.425781 458.261719 401.226562 456.066406 400.519531 C 444.699219 396.859375 439.613281 392.132812 439.613281 389.066406 C 439.613281 382.332031 460.394531 372.546875 492.957031 372.546875 L 498.464844 372.546875 C 499.113281 374.992188 499.71875 377.457031 500.257812 379.9375 C 500.261719 379.949219 500.261719 379.964844 500.265625 379.980469 C 500.265625 379.996094 500.273438 380.011719 500.277344 380.027344 C 502.785156 391.554688 504.09375 403.460938 504.09375 415.582031 C 504.09375 432.394531 501.574219 448.625 496.902344 463.921875 L 456.023438 463.921875 C 404.355469 463.921875 365.746094 449.597656 365.746094 436.796875 C 365.746094 433.546875 368.464844 430.015625 373.410156 426.648438 L 372.21875 436.214844 C 371.949219 438.398438 373.226562 440.472656 375.292969 441.214844 Z M 390.949219 348.835938 C 390.058594 347.828125 388.777344 347.25 387.429688 347.25 L 341.429688 347.25 L 368.125 275.699219 C 374.015625 272.714844 379.484375 268.773438 384.3125 263.921875 C 384.5625 263.671875 384.8125 263.417969 385.054688 263.164062 C 392.324219 269.054688 400.722656 273.167969 409.6875 275.324219 L 393.585938 318.480469 C 393.046875 319.925781 393.25 321.539062 394.128906 322.800781 C 395.003906 324.0625 396.445312 324.820312 397.984375 324.820312 L 442.21875 324.820312 L 384.125 416.574219 L 392.09375 352.523438 C 392.257812 351.1875 391.839844 349.84375 390.949219 348.835938 Z M 288.632812 381.75 C 291.554688 384.257812 293.039062 386.71875 293.039062 389.066406 C 293.039062 399.367188 265.710938 410.886719 229.140625 410.886719 C 208.09375 410.886719 188.71875 407.15625 176.457031 400.824219 C 180.671875 353.636719 204.945312 310.308594 243.351562 282.164062 C 244.1875 282.929688 245.109375 283.617188 246.113281 284.234375 C 228.988281 307.78125 222.867188 336.042969 231.210938 360.246094 C 238.039062 380.054688 252.738281 392.515625 263.867188 399.484375 C 264.628906 399.960938 265.496094 400.199219 266.359375 400.199219 C 267.351562 400.199219 268.339844 399.886719 269.167969 399.265625 C 270.722656 398.105469 271.402344 396.109375 270.882812 394.242188 C 268.109375 384.316406 267.648438 374.664062 269.511719 365.558594 C 272.464844 351.132812 281.058594 339.949219 291.046875 330.375 C 308.15625 331.285156 323.78125 334.785156 334.125 339.96875 L 330.269531 350.304688 C 329.730469 351.746094 329.933594 353.359375 330.8125 354.621094 C 331.6875 355.886719 333.128906 356.640625 334.667969 356.640625 L 343.933594 356.640625 C 338.019531 364.328125 318.402344 372.011719 291.433594 373.5 C 289.515625 373.605469 287.859375 374.863281 287.246094 376.679688 C 286.628906 378.496094 287.179688 380.503906 288.632812 381.75 Z M 300.796875 321.730469 C 303.140625 319.769531 305.488281 317.867188 307.792969 316 C 320.832031 305.433594 333.261719 295.359375 336.304688 282.289062 C 337.566406 282.363281 338.828125 282.40625 340.085938 282.40625 C 345.660156 282.40625 351.140625 281.648438 356.421875 280.210938 L 337.429688 331.117188 C 327.894531 326.523438 315.136719 323.265625 300.796875 321.730469 Z M 436.539062 400.953125 C 424.234375 401.800781 412.53125 403.449219 402.054688 405.808594 L 454.714844 322.636719 C 455.628906 321.191406 455.683594 319.359375 454.859375 317.863281 C 454.035156 316.363281 452.457031 315.429688 450.746094 315.429688 L 404.746094 315.429688 L 419.140625 276.851562 C 421.171875 277.019531 423.222656 277.105469 425.285156 277.078125 C 426.5 277.058594 427.707031 276.996094 428.914062 276.910156 C 443.933594 286.664062 457.816406 299.566406 468.671875 313.085938 C 475.59375 321.851562 481.9375 331.96875 486.925781 341.921875 C 490.324219 348.773438 493.246094 355.863281 495.664062 363.160156 L 492.957031 363.160156 C 461.78125 363.160156 430.222656 372.058594 430.222656 389.066406 C 430.222656 393.394531 432.398438 397.417969 436.539062 400.953125 Z M 498.003906 343.371094 C 512.289062 340.496094 524.222656 330.90625 530.191406 317.726562 C 533.773438 322.226562 538.171875 326.066406 543.191406 329.007812 C 541.824219 349.527344 527.765625 367.277344 508.347656 373.277344 C 505.804688 362.964844 502.335938 352.960938 498.003906 343.371094 Z M 474.136719 304.878906 C 464.875 293.574219 454.125 283.363281 442.042969 274.539062 C 452.03125 271.605469 461.195312 266.203125 468.734375 258.621094 C 474.367188 252.957031 478.78125 246.449219 481.902344 239.207031 C 484.519531 240.457031 487.199219 241.5 489.917969 242.363281 C 492.425781 251.570312 497.695312 259.671875 504.742188 265.734375 C 505.035156 267.542969 505.183594 269.382812 505.183594 271.226562 C 505.183594 288.945312 491.453125 303.574219 474.136719 304.878906 Z M 131.367188 192.796875 C 124.453125 182.359375 131.292969 162.796875 149.664062 140.464844 C 151.3125 138.460938 151.023438 135.503906 149.023438 133.855469 C 147.019531 132.207031 144.058594 132.496094 142.414062 134.5 C 126.484375 153.863281 118.597656 171.609375 119.464844 185.304688 C 107.867188 185.796875 99.707031 183.285156 96.253906 178.066406 C 85.027344 161.117188 119.621094 110.710938 187.214844 65.476562 C 236.570312 32.445312 288.773438 12.929688 314.152344 18.023438 C 319.601562 19.117188 323.449219 21.308594 325.585938 24.539062 C 329.050781 29.765625 328.214844 38.304688 323.289062 48.875 C 320.515625 47.496094 317.378906 46.4375 313.867188 45.730469 C 287.265625 40.394531 242.390625 55.480469 199.535156 84.160156 C 187.167969 92.4375 175.636719 101.390625 165.265625 110.773438 C 163.34375 112.511719 163.195312 115.480469 164.933594 117.402344 C 165.859375 118.425781 167.136719 118.949219 168.417969 118.949219 C 169.539062 118.949219 170.667969 118.546875 171.566406 117.734375 C 181.601562 108.65625 192.769531 99.988281 204.761719 91.960938 C 245.019531 65.019531 288.121094 50.144531 312.019531 54.9375 C 318.410156 56.21875 322.96875 58.859375 325.566406 62.78125 C 330.117188 69.648438 328.097656 79.261719 324.722656 87.46875 C 316.257812 82.085938 304.257812 79.992188 289.695312 81.546875 C 270.390625 83.605469 247.84375 91.886719 226.207031 104.859375 C 223.984375 106.191406 223.261719 109.074219 224.597656 111.300781 C 225.929688 113.523438 228.816406 114.246094 231.035156 112.914062 C 272.128906 88.273438 313.640625 83.050781 325.546875 101.023438 C 329.628906 107.1875 329.859375 116.011719 326.332031 126.292969 C 321.820312 122.882812 316.042969 120.617188 309.222656 119.648438 C 306.648438 119.28125 304.277344 121.066406 303.914062 123.636719 C 303.546875 126.203125 305.332031 128.578125 307.898438 128.945312 C 313.332031 129.71875 320.65625 131.917969 324.695312 138.015625 C 328.667969 144.015625 328.0625 151.488281 326.441406 157.507812 C 320.433594 156.5625 313.183594 156.953125 304.890625 158.765625 C 302.359375 159.316406 300.753906 161.820312 301.304688 164.351562 C 301.855469 166.886719 304.351562 168.488281 306.894531 167.9375 C 320.539062 164.960938 330.78125 166.339844 334.285156 171.628906 C 337.984375 177.214844 334.746094 188.058594 325.859375 200.238281 C 321.449219 200.085938 316.527344 200.605469 311.1875 201.851562 C 308.664062 202.441406 307.09375 204.964844 307.683594 207.492188 C 308.273438 210.015625 310.796875 211.585938 313.324219 210.996094 C 325.082031 208.25 334.003906 209.480469 337.1875 214.285156 C 341.671875 221.058594 335.289062 234.984375 321.914062 248.285156 C 320.566406 247.09375 319.132812 245.90625 317.605469 244.730469 C 315.550781 243.144531 312.605469 243.53125 311.023438 245.582031 C 309.4375 247.636719 309.820312 250.582031 311.875 252.167969 C 321.917969 259.910156 327.207031 267.652344 327.597656 275.175781 C 327.867188 280.429688 325.75 285.257812 322.121094 289.96875 C 318.855469 288.039062 315.425781 286.433594 311.871094 285.195312 C 291.074219 277.949219 272.75 284.96875 265.835938 288.324219 C 263.503906 289.453125 262.53125 292.261719 263.660156 294.597656 C 264.792969 296.929688 267.601562 297.902344 269.933594 296.773438 C 275.792969 293.929688 291.304688 287.976562 308.78125 294.0625 C 311.113281 294.875 313.378906 295.894531 315.570312 297.066406 C 311.558594 300.867188 306.839844 304.691406 301.882812 308.710938 C 284.847656 322.515625 265.539062 338.164062 260.316406 363.679688 C 258.925781 370.476562 258.640625 377.503906 259.457031 384.675781 C 251.878906 378.25 244.253906 369.257812 240.089844 357.1875 C 229.816406 327.386719 244.804688 290.265625 276.539062 266.917969 C 278.628906 265.378906 279.074219 262.441406 277.539062 260.351562 C 276 258.265625 273.0625 257.816406 270.976562 259.355469 C 263.867188 264.582031 257.546875 270.464844 252.058594 276.792969 C 250.460938 276.027344 249.226562 275.019531 248.394531 273.761719 C 246.734375 271.25 246.582031 267.609375 247.835938 263.28125 C 247.839844 263.277344 247.839844 263.269531 247.84375 263.261719 C 250.898438 252.777344 262.261719 238.25 280.78125 225.855469 C 283.625 223.957031 286.546875 222.167969 289.472656 220.546875 C 291.738281 219.289062 292.558594 216.429688 291.300781 214.164062 C 290.042969 211.898438 287.1875 211.078125 284.917969 212.335938 C 281.765625 214.082031 278.617188 216.007812 275.558594 218.054688 C 257.230469 230.320312 244.5 244.957031 239.703125 257.855469 C 225.167969 261.359375 214.035156 260.175781 210.355469 254.621094 C 203.277344 243.9375 220.851562 214.992188 257.386719 190.542969 C 259.542969 189.101562 260.117188 186.183594 258.675781 184.03125 C 257.238281 181.875 254.316406 181.296875 252.164062 182.738281 C 231.351562 196.667969 215.601562 212.375 206.945312 226.671875 C 204.355469 225.1875 202.28125 223.289062 200.769531 221.007812 C 189.933594 204.652344 209.171875 171.835938 242.777344 149.347656 C 250.074219 144.464844 257.644531 140.308594 265.277344 136.996094 C 267.65625 135.964844 268.75 133.199219 267.714844 130.820312 C 266.683594 128.445312 263.917969 127.351562 261.539062 128.382812 C 253.390625 131.921875 245.320312 136.347656 237.554688 141.546875 C 203.078125 164.617188 183.78125 196.230469 189.335938 217.984375 C 178.546875 217.285156 170.554688 213.679688 166.480469 207.527344 C 160.304688 198.207031 162.9375 183.074219 173.695312 166.015625 C 175.078125 163.824219 174.421875 160.925781 172.230469 159.539062 C 170.039062 158.160156 167.136719 158.816406 165.753906 161.007812 C 156.179688 176.1875 152.308594 190.136719 154.28125 201.519531 C 145.464844 201.476562 135.898438 199.640625 131.367188 192.796875 Z M 100.726562 454.875 C 70.695312 421.359375 65.449219 383.175781 64.988281 363.464844 C 71.722656 365.605469 78.214844 368.441406 84.355469 371.9375 C 93.777344 377.292969 102.261719 384.117188 109.574219 392.210938 C 110.722656 393.484375 112.472656 394.03125 114.144531 393.632812 C 115.8125 393.238281 117.132812 391.960938 117.585938 390.308594 C 121.523438 375.972656 121.5 362.570312 117.519531 350.476562 C 113.042969 336.878906 104.652344 328.605469 97.25 321.304688 C 90.273438 314.421875 83.683594 307.925781 80.625 297.582031 C 78.015625 288.765625 78.507812 278.742188 82.074219 267.691406 C 84.007812 270.605469 86.199219 273.289062 88.636719 275.71875 C 96.835938 283.894531 105.292969 286.683594 113.472656 289.382812 C 119.621094 291.410156 125.429688 293.328125 131.515625 297.484375 C 139.542969 302.964844 146.09375 311.234375 150.992188 322.058594 C 151.757812 323.75 153.417969 324.828125 155.300781 324.820312 C 157.15625 324.808594 158.832031 323.703125 159.570312 322.003906 C 163.703125 312.527344 165.613281 302.914062 165.238281 293.425781 C 164.65625 278.660156 158.640625 267.964844 153.335938 258.527344 C 148.078125 249.175781 143.535156 241.101562 144.128906 230.226562 C 144.480469 223.773438 146.691406 217.246094 150.679688 210.78125 C 151.96875 210.855469 153.28125 210.90625 154.636719 210.90625 C 155.589844 210.90625 156.558594 210.886719 157.546875 210.851562 C 157.898438 211.480469 158.25 212.109375 158.648438 212.710938 C 165.085938 222.425781 176.96875 227.511719 193.144531 227.511719 C 193.382812 227.511719 193.632812 227.496094 193.875 227.496094 C 196.164062 230.535156 199.101562 233.046875 202.628906 235.003906 C 198.535156 244.695312 198.25 253.347656 202.523438 259.804688 C 206.6875 266.085938 214.339844 269.28125 224.765625 269.28125 C 228.664062 269.28125 232.957031 268.824219 237.589844 267.921875 C 237.535156 270.121094 237.792969 272.21875 238.367188 274.183594 C 193.242188 306.976562 166.402344 359.539062 166.402344 415.582031 C 166.402344 446.261719 174.335938 475.109375 188.234375 500.179688 C 168.839844 497.652344 130.785156 488.425781 100.726562 454.875 Z M 339.945312 580.589844 C 286.871094 580.589844 239.609375 555.132812 209.582031 515.734375 L 255.519531 515.734375 C 288.085938 515.734375 308.867188 525.519531 308.867188 532.253906 C 308.867188 535.316406 303.78125 540.046875 292.414062 543.707031 C 290.21875 544.414062 288.863281 546.613281 289.210938 548.890625 C 289.5625 551.171875 291.523438 552.859375 293.828125 552.871094 C 317.671875 552.988281 340.164062 556.09375 357.164062 561.625 C 369.1875 565.535156 377.652344 570.460938 381.058594 575.351562 C 367.914062 578.769531 354.136719 580.589844 339.945312 580.589844 Z M 390.351562 572.621094 C 382.335938 556.390625 348.386719 546.695312 311.929688 544.152344 C 316.078125 540.613281 318.257812 536.585938 318.257812 532.253906 C 318.257812 515.246094 286.695312 506.347656 255.523438 506.347656 L 202.929688 506.347656 C 185.789062 480.289062 175.792969 449.089844 175.792969 415.582031 C 175.792969 414.019531 175.820312 412.464844 175.867188 410.90625 C 189.421875 416.832031 208.644531 420.277344 229.140625 420.277344 C 264.667969 420.277344 302.425781 409.339844 302.425781 389.066406 C 302.425781 387.183594 302.058594 384.796875 300.789062 382.164062 C 329.734375 379.097656 350.316406 369.261719 354.421875 356.636719 L 382.117188 356.636719 L 374.859375 414.96875 C 359.648438 422.609375 356.351562 430.988281 356.351562 436.792969 C 356.351562 460.511719 407.707031 473.308594 456.023438 473.308594 L 493.71875 473.308594 C 492.179688 477.429688 490.484375 481.472656 488.636719 485.429688 C 486.589844 485.242188 484.507812 485.132812 482.40625 485.132812 C 461.679688 485.132812 446.050781 493.988281 446.050781 505.738281 C 446.050781 513.460938 452.859375 520.0625 463.921875 523.613281 C 444.511719 546.097656 419.160156 563.253906 390.351562 572.621094 Z M 470.375 515.644531 C 460.976562 513.488281 455.441406 509.101562 455.441406 505.738281 C 455.441406 501.164062 465.945312 494.523438 482.40625 494.523438 C 482.953125 494.523438 483.496094 494.535156 484.039062 494.550781 C 480.015625 501.945312 475.4375 508.988281 470.375 515.644531 Z M 625.449219 373.15625 C 625.449219 446.597656 566.015625 506.347656 492.957031 506.347656 C 491.355469 506.347656 489.742188 506.308594 488.132812 506.25 C 491.492188 500.730469 494.539062 495.007812 497.28125 489.109375 C 550.523438 487.109375 596.128906 448.121094 606.339844 395.351562 C 606.832031 392.804688 605.167969 390.339844 602.621094 389.847656 C 600.074219 389.355469 597.613281 391.023438 597.121094 393.566406 C 588.023438 440.566406 548.386719 475.667969 501.425781 479.464844 C 506.230469 467.238281 509.691406 454.335938 511.640625 440.949219 C 542.554688 436.917969 566.246094 410.191406 566.246094 378.460938 C 566.246094 375.867188 564.144531 373.765625 561.550781 373.765625 C 558.957031 373.765625 556.855469 375.867188 556.855469 378.460938 C 556.855469 404.65625 537.902344 426.847656 512.769531 431.285156 C 513.234375 426.109375 513.484375 420.875 513.484375 415.582031 C 513.484375 404.332031 512.421875 393.253906 510.371094 382.472656 C 532.75 375.882812 549.292969 356.242188 552.222656 333.078125 C 553.351562 333.449219 554.503906 333.785156 555.671875 334.070312 C 563.167969 350.84375 580.054688 361.941406 598.484375 361.941406 C 601.078125 361.941406 603.179688 359.839844 603.179688 357.246094 C 603.179688 354.65625 601.078125 352.550781 598.484375 352.550781 C 583.058594 352.550781 568.984375 342.816406 563.457031 328.328125 C 562.875 326.800781 561.539062 325.6875 559.929688 325.386719 C 542.1875 322.074219 529.308594 306.476562 529.308594 288.304688 C 529.308594 283.195312 530.308594 278.246094 532.269531 273.585938 C 532.824219 272.265625 532.75 270.765625 532.0625 269.511719 C 531.378906 268.253906 530.15625 267.382812 528.746094 267.136719 C 522.769531 266.101562 517.257812 263.585938 512.574219 260.011719 C 512.160156 259.527344 511.660156 259.132812 511.09375 258.847656 C 506.609375 255.0625 503.023438 250.234375 500.683594 244.757812 C 519.546875 247.21875 539.050781 240.976562 553.15625 226.800781 C 566.546875 213.339844 572.585938 195.257812 571.304688 177.617188 C 587.484375 181.941406 599.066406 196.679688 599.066406 214.058594 C 599.066406 217.980469 598.464844 221.859375 597.277344 225.578125 C 596.507812 228.003906 597.804688 230.601562 600.207031 231.4375 C 615.304688 236.695312 625.449219 251.023438 625.449219 267.089844 C 625.449219 279.925781 619.050781 291.761719 608.335938 298.761719 C 606.230469 300.136719 605.582031 302.921875 606.863281 305.085938 C 619.023438 325.601562 625.449219 349.140625 625.449219 373.15625 Z M 625.449219 373.15625 " fill-opacity="1" fill-rule="nonzero"/></svg>