<svg xmlns="http://www.w3.org/2000/svg" xmlns:xlink="http://www.w3.org/1999/xlink" width="940" zoomAndPan="magnify" viewBox="0 0 705 591.000005" height="788" preserveAspectRatio="xMidYMid meet" version="1.0"><defs><clipPath id="0670b64aa9"><path d="M 16 10.398438 L 665 10.398438 L 665 579.433594 L 16 579.433594 Z M 16 10.398438 " clip-rule="nonzero"/></clipPath><clipPath id="010f865519"><path d="M 0.59375 279 L 88 279 L 88 288 L 0.59375 288 Z M 0.59375 279 " clip-rule="nonzero"/></clipPath><clipPath id="3785da32aa"><path d="M 617 397 L 704.402344 397 L 704.402344 406 L 617 406 Z M 617 397 " clip-rule="nonzero"/></clipPath></defs><g clip-path="url(#0670b64aa9)"><path fill="#c7ede6" d="M 634.847656 347.949219 C 643.820312 330.917969 648.957031 311.554688 648.957031 290.964844 C 648.957031 238.636719 616.078125 194.09375 569.894531 176.542969 C 569.894531 176.484375 569.902344 176.429688 569.902344 176.367188 C 569.902344 84.703125 495.574219 10.398438 403.886719 10.398438 C 326.539062 10.398438 261.734375 63.359375 243.300781 134.929688 C 231.632812 131.097656 219.195312 128.949219 206.246094 128.949219 C 145.4375 128.949219 95.386719 174.730469 88.53125 233.683594 C 47.390625 242.382812 16.511719 278.863281 16.511719 322.578125 C 16.511719 372.773438 57.21875 413.464844 107.425781 413.464844 C 108.828125 413.464844 110.210938 413.371094 111.585938 413.292969 C 111.554688 414.675781 111.378906 416.027344 111.378906 417.417969 C 111.378906 506.898438 183.9375 579.433594 273.445312 579.433594 C 324.332031 579.433594 369.695312 555.945312 399.410156 519.257812 C 416.628906 536.84375 440.566406 547.820312 467.128906 547.820312 C 503.890625 547.820312 535.703125 526.878906 551.453125 496.308594 C 559.769531 498.957031 568.613281 500.402344 577.808594 500.402344 C 625.835938 500.402344 664.769531 461.476562 664.769531 413.464844 C 664.769531 387.296875 653.148438 363.890625 634.847656 347.949219 Z M 634.847656 347.949219 " fill-opacity="1" fill-rule="nonzero"/></g><path fill="#88ae45" d="M 534.328125 452.984375 C 534.328125 453.566406 534.253906 454.144531 534.109375 454.726562 C 533.964844 455.308594 533.746094 455.890625 533.453125 456.46875 C 533.160156 457.046875 532.796875 457.625 532.359375 458.199219 C 531.921875 458.777344 531.414062 459.351562 530.835938 459.921875 C 530.253906 460.492188 529.601562 461.058594 528.878906 461.625 C 528.15625 462.1875 527.363281 462.75 526.5 463.304688 C 525.632812 463.863281 524.703125 464.414062 523.699219 464.964844 C 522.695312 465.511719 521.625 466.054688 520.488281 466.59375 C 519.347656 467.128906 518.144531 467.664062 516.871094 468.1875 C 515.597656 468.714844 514.261719 469.234375 512.859375 469.746094 C 511.457031 470.261719 509.988281 470.765625 508.460938 471.265625 C 506.929688 471.765625 505.335938 472.257812 503.683594 472.742188 C 502.03125 473.226562 500.316406 473.699219 498.546875 474.167969 C 496.773438 474.636719 494.941406 475.09375 493.054688 475.542969 C 491.167969 475.996094 489.222656 476.433594 487.226562 476.867188 C 485.226562 477.296875 483.175781 477.71875 481.070312 478.128906 C 478.96875 478.542969 476.8125 478.945312 474.609375 479.335938 C 472.402344 479.726562 470.152344 480.105469 467.851562 480.472656 C 465.550781 480.84375 463.203125 481.203125 460.816406 481.546875 C 458.425781 481.894531 455.992188 482.230469 453.519531 482.554688 C 451.042969 482.875 448.53125 483.1875 445.976562 483.488281 C 443.425781 483.785156 440.835938 484.074219 438.214844 484.347656 C 435.589844 484.621094 432.929688 484.882812 430.242188 485.132812 C 427.550781 485.382812 424.832031 485.617188 422.082031 485.839844 C 419.332031 486.0625 416.558594 486.273438 413.757812 486.46875 C 410.953125 486.664062 408.128906 486.847656 405.28125 487.015625 C 402.433594 487.183594 399.566406 487.339844 396.679688 487.480469 C 393.792969 487.621094 390.890625 487.75 387.972656 487.863281 C 385.054688 487.976562 382.125 488.078125 379.179688 488.164062 C 376.234375 488.246094 373.285156 488.320312 370.320312 488.375 C 367.359375 488.433594 364.394531 488.476562 361.421875 488.503906 C 358.449219 488.53125 355.476562 488.546875 352.5 488.546875 C 349.523438 488.546875 346.550781 488.53125 343.578125 488.503906 C 340.605469 488.476562 337.640625 488.433594 334.675781 488.375 C 331.714844 488.320312 328.765625 488.246094 325.820312 488.164062 C 322.875 488.078125 319.945312 487.976562 317.027344 487.863281 C 314.109375 487.75 311.207031 487.621094 308.320312 487.480469 C 305.433594 487.339844 302.566406 487.183594 299.71875 487.015625 C 296.871094 486.847656 294.046875 486.664062 291.242188 486.46875 C 288.441406 486.273438 285.667969 486.0625 282.917969 485.839844 C 280.167969 485.617188 277.449219 485.382812 274.757812 485.132812 C 272.070312 484.882812 269.410156 484.621094 266.785156 484.347656 C 264.164062 484.074219 261.574219 483.785156 259.023438 483.488281 C 256.46875 483.1875 253.957031 482.875 251.480469 482.554688 C 249.007812 482.230469 246.574219 481.894531 244.183594 481.546875 C 241.796875 481.203125 239.449219 480.84375 237.148438 480.472656 C 234.847656 480.105469 232.597656 479.726562 230.390625 479.335938 C 228.1875 478.945312 226.03125 478.542969 223.929688 478.128906 C 221.824219 477.71875 219.773438 477.296875 217.773438 476.867188 C 215.777344 476.433594 213.832031 475.996094 211.945312 475.542969 C 210.058594 475.09375 208.226562 474.636719 206.453125 474.167969 C 204.683594 473.699219 202.96875 473.226562 201.316406 472.742188 C 199.664062 472.257812 198.070312 471.765625 196.539062 471.265625 C 195.011719 470.765625 193.542969 470.261719 192.140625 469.746094 C 190.738281 469.234375 189.402344 468.714844 188.128906 468.1875 C 186.855469 467.664062 185.652344 467.128906 184.511719 466.59375 C 183.375 466.054688 182.304688 465.511719 181.300781 464.964844 C 180.296875 464.414062 179.363281 463.863281 178.5 463.304688 C 177.636719 462.75 176.84375 462.1875 176.121094 461.625 C 175.398438 461.058594 174.746094 460.492188 174.164062 459.921875 C 173.585938 459.351562 173.078125 458.777344 172.640625 458.199219 C 172.203125 457.625 171.839844 457.046875 171.546875 456.46875 C 171.253906 455.890625 171.035156 455.308594 170.890625 454.726562 C 170.746094 454.144531 170.671875 453.566406 170.671875 452.984375 C 170.671875 452.402344 170.746094 451.820312 170.890625 451.238281 C 171.035156 450.65625 171.253906 450.074219 171.546875 449.496094 C 171.839844 448.917969 172.203125 448.339844 172.640625 447.765625 C 173.078125 447.1875 173.585938 446.613281 174.164062 446.042969 C 174.746094 445.472656 175.398438 444.90625 176.121094 444.339844 C 176.84375 443.777344 177.636719 443.214844 178.5 442.660156 C 179.363281 442.101562 180.296875 441.550781 181.300781 441 C 182.304688 440.453125 183.375 439.910156 184.511719 439.371094 C 185.652344 438.835938 186.855469 438.300781 188.128906 437.777344 C 189.402344 437.25 190.738281 436.730469 192.140625 436.21875 C 193.542969 435.703125 195.011719 435.199219 196.539062 434.699219 C 198.070312 434.199219 199.664062 433.707031 201.316406 433.222656 C 202.96875 432.738281 204.683594 432.265625 206.453125 431.796875 C 208.226562 431.328125 210.058594 430.871094 211.945312 430.421875 C 213.832031 429.96875 215.777344 429.53125 217.773438 429.097656 C 219.773438 428.667969 221.824219 428.246094 223.929688 427.835938 C 226.03125 427.421875 228.1875 427.023438 230.390625 426.628906 C 232.597656 426.238281 234.847656 425.859375 237.148438 425.492188 C 239.449219 425.121094 241.796875 424.761719 244.183594 424.417969 C 246.574219 424.070312 249.007812 423.734375 251.480469 423.410156 C 253.957031 423.089844 256.46875 422.777344 259.023438 422.476562 C 261.574219 422.179688 264.164062 421.890625 266.785156 421.617188 C 269.410156 421.34375 272.070312 421.082031 274.757812 420.832031 C 277.449219 420.582031 280.167969 420.347656 282.917969 420.125 C 285.667969 419.902344 288.441406 419.691406 291.242188 419.496094 C 294.046875 419.300781 296.871094 419.117188 299.71875 418.949219 C 302.566406 418.78125 305.433594 418.625 308.320312 418.484375 C 311.207031 418.34375 314.109375 418.214844 317.027344 418.101562 C 319.945312 417.988281 322.875 417.886719 325.820312 417.800781 C 328.765625 417.71875 331.714844 417.644531 334.675781 417.589844 C 337.640625 417.53125 340.605469 417.488281 343.578125 417.460938 C 346.550781 417.433594 349.523438 417.417969 352.5 417.417969 C 355.476562 417.417969 358.449219 417.433594 361.421875 417.460938 C 364.394531 417.488281 367.359375 417.53125 370.320312 417.589844 C 373.285156 417.644531 376.234375 417.71875 379.179688 417.800781 C 382.125 417.886719 385.054688 417.988281 387.972656 418.101562 C 390.890625 418.214844 393.792969 418.34375 396.679688 418.484375 C 399.566406 418.625 402.433594 418.78125 405.28125 418.949219 C 408.128906 419.117188 410.953125 419.300781 413.757812 419.496094 C 416.558594 419.691406 419.332031 419.902344 422.082031 420.125 C 424.832031 420.347656 427.550781 420.582031 430.242188 420.832031 C 432.929688 421.082031 435.589844 421.34375 438.214844 421.617188 C 440.835938 421.890625 443.425781 422.179688 445.976562 422.476562 C 448.53125 422.777344 451.042969 423.089844 453.519531 423.410156 C 455.992188 423.734375 458.425781 424.070312 460.816406 424.417969 C 463.203125 424.761719 465.550781 425.121094 467.851562 425.492188 C 470.152344 425.859375 472.402344 426.238281 474.609375 426.628906 C 476.8125 427.023438 478.96875 427.421875 481.070312 427.835938 C 483.175781 428.246094 485.226562 428.667969 487.226562 429.097656 C 489.222656 429.53125 491.167969 429.96875 493.054688 430.421875 C 494.941406 430.871094 496.773438 431.328125 498.546875 431.796875 C 500.316406 432.265625 502.03125 432.738281 503.683594 433.222656 C 505.335938 433.707031 506.929688 434.199219 508.460938 434.699219 C 509.988281 435.199219 511.457031 435.703125 512.859375 436.21875 C 514.261719 436.730469 515.597656 437.25 516.871094 437.777344 C 518.144531 438.300781 519.347656 438.835938 520.488281 439.371094 C 521.625 439.910156 522.695312 440.453125 523.699219 441 C 524.703125 441.550781 525.632812 442.101562 526.5 442.660156 C 527.363281 443.214844 528.15625 443.777344 528.878906 444.339844 C 529.601562 444.90625 530.253906 445.472656 530.835938 446.042969 C 531.414062 446.613281 531.921875 447.1875 532.359375 447.765625 C 532.796875 448.339844 533.160156 448.917969 533.453125 449.496094 C 533.746094 450.074219 533.964844 450.65625 534.109375 451.238281 C 534.253906 451.820312 534.328125 452.402344 534.328125 452.984375 Z M 534.328125 452.984375 " fill-opacity="1" fill-rule="nonzero"/><g clip-path="url(#010f865519)"><path fill="#ffffff" d="M 83.710938 287.011719 L 4.65625 287.011719 C 2.472656 287.011719 0.703125 285.242188 0.703125 283.0625 C 0.703125 280.878906 2.472656 279.109375 4.65625 279.109375 L 83.710938 279.109375 C 85.894531 279.109375 87.664062 280.878906 87.664062 283.0625 C 87.664062 285.242188 85.902344 287.011719 83.710938 287.011719 Z M 83.710938 287.011719 " fill-opacity="1" fill-rule="nonzero"/></g><path fill="#ffffff" d="M 107.425781 287.011719 L 99.523438 287.011719 C 97.339844 287.011719 95.570312 285.242188 95.570312 283.0625 C 95.570312 280.878906 97.339844 279.109375 99.523438 279.109375 L 107.425781 279.109375 C 109.609375 279.109375 111.378906 280.878906 111.378906 283.0625 C 111.378906 285.242188 109.617188 287.011719 107.425781 287.011719 Z M 107.425781 287.011719 " fill-opacity="1" fill-rule="nonzero"/><path fill="#ffffff" d="M 146.882812 302.820312 L 75.804688 302.820312 C 73.625 302.820312 71.851562 301.050781 71.851562 298.867188 C 71.851562 296.6875 73.625 294.917969 75.804688 294.917969 L 146.882812 294.917969 C 149.066406 294.917969 150.835938 296.6875 150.835938 298.867188 C 150.835938 301.050781 149.066406 302.820312 146.882812 302.820312 Z M 146.882812 302.820312 " fill-opacity="1" fill-rule="nonzero"/><path fill="#ffffff" d="M 59.992188 302.820312 L 52.089844 302.820312 C 49.90625 302.820312 48.136719 301.050781 48.136719 298.867188 C 48.136719 296.6875 49.90625 294.917969 52.089844 294.917969 L 59.992188 294.917969 C 62.175781 294.917969 63.945312 296.6875 63.945312 298.867188 C 63.945312 301.050781 62.183594 302.820312 59.992188 302.820312 Z M 59.992188 302.820312 " fill-opacity="1" fill-rule="nonzero"/><path fill="#ffffff" d="M 36.277344 302.820312 L 20.464844 302.820312 C 18.285156 302.820312 16.511719 301.050781 16.511719 298.867188 C 16.511719 296.6875 18.285156 294.917969 20.464844 294.917969 L 36.277344 294.917969 C 38.460938 294.917969 40.230469 296.6875 40.230469 298.867188 C 40.230469 301.050781 38.46875 302.820312 36.277344 302.820312 Z M 36.277344 302.820312 " fill-opacity="1" fill-rule="nonzero"/><path fill="#ffffff" d="M 83.710938 318.625 L 67.898438 318.625 C 65.71875 318.625 63.945312 316.855469 63.945312 314.675781 C 63.945312 312.492188 65.71875 310.722656 67.898438 310.722656 L 83.710938 310.722656 C 85.894531 310.722656 87.664062 312.492188 87.664062 314.675781 C 87.664062 316.855469 85.894531 318.625 83.710938 318.625 Z M 83.710938 318.625 " fill-opacity="1" fill-rule="nonzero"/><path fill="#ffffff" d="M 107.425781 247.496094 C 106.027344 247.496094 100.921875 247.496094 99.523438 247.496094 C 97.339844 247.496094 95.570312 249.265625 95.570312 251.449219 C 95.570312 253.628906 97.339844 255.398438 99.523438 255.398438 C 100.921875 255.398438 106.027344 255.398438 107.425781 255.398438 C 109.609375 255.398438 111.378906 253.628906 111.378906 251.449219 C 111.378906 249.265625 109.609375 247.496094 107.425781 247.496094 Z M 107.425781 247.496094 " fill-opacity="1" fill-rule="nonzero"/><path fill="#ffffff" d="M 107.425781 263.304688 C 106.027344 263.304688 69.296875 263.304688 67.898438 263.304688 C 65.71875 263.304688 63.945312 265.074219 63.945312 267.253906 C 63.945312 269.4375 65.71875 271.207031 67.898438 271.207031 C 69.296875 271.207031 106.027344 271.207031 107.425781 271.207031 C 109.609375 271.207031 111.378906 269.4375 111.378906 267.253906 C 111.378906 265.074219 109.609375 263.304688 107.425781 263.304688 Z M 107.425781 263.304688 " fill-opacity="1" fill-rule="nonzero"/><path fill="#ffffff" d="M 146.957031 279.109375 C 145.554688 279.109375 124.636719 279.109375 123.238281 279.109375 C 121.054688 279.109375 119.285156 280.878906 119.285156 283.0625 C 119.285156 285.242188 121.054688 287.011719 123.238281 287.011719 C 124.636719 287.011719 145.554688 287.011719 146.957031 287.011719 C 149.136719 287.011719 150.90625 285.242188 150.90625 283.0625 C 150.90625 280.878906 149.136719 279.109375 146.957031 279.109375 Z M 146.957031 279.109375 " fill-opacity="1" fill-rule="nonzero"/><path fill="#ffffff" d="M 629.195312 389.757812 L 550.140625 389.757812 C 547.957031 389.757812 546.1875 387.984375 546.1875 385.804688 C 546.1875 383.625 547.957031 381.851562 550.140625 381.851562 L 629.195312 381.851562 C 631.375 381.851562 633.148438 383.625 633.148438 385.804688 C 633.148438 387.984375 631.375 389.757812 629.195312 389.757812 Z M 629.195312 389.757812 " fill-opacity="1" fill-rule="nonzero"/><path fill="#ffffff" d="M 660.816406 389.757812 L 645.007812 389.757812 C 642.824219 389.757812 641.054688 387.984375 641.054688 385.804688 C 641.054688 383.625 642.824219 381.851562 645.007812 381.851562 L 660.816406 381.851562 C 663 381.851562 664.769531 383.625 664.769531 385.804688 C 664.769531 387.984375 663 389.757812 660.816406 389.757812 Z M 660.816406 389.757812 " fill-opacity="1" fill-rule="nonzero"/><g clip-path="url(#3785da32aa)"><path fill="#ffffff" d="M 700.34375 405.5625 L 621.289062 405.5625 C 619.105469 405.5625 617.335938 403.792969 617.335938 401.609375 C 617.335938 399.429688 619.105469 397.660156 621.289062 397.660156 L 700.34375 397.660156 C 702.527344 397.660156 704.296875 399.429688 704.296875 401.609375 C 704.296875 403.792969 702.535156 405.5625 700.34375 405.5625 Z M 700.34375 405.5625 " fill-opacity="1" fill-rule="nonzero"/></g><path fill="#ffffff" d="M 605.476562 405.5625 L 597.574219 405.5625 C 595.390625 405.5625 593.621094 403.792969 593.621094 401.609375 C 593.621094 399.429688 595.390625 397.660156 597.574219 397.660156 L 605.476562 397.660156 C 607.660156 397.660156 609.429688 399.429688 609.429688 401.609375 C 609.429688 403.792969 607.660156 405.5625 605.476562 405.5625 Z M 605.476562 405.5625 " fill-opacity="1" fill-rule="nonzero"/><path fill="#ffffff" d="M 581.523438 405.5625 L 565.949219 405.5625 C 563.769531 405.5625 561.996094 403.792969 561.996094 401.609375 C 561.996094 399.429688 563.769531 397.660156 565.949219 397.660156 L 581.523438 397.660156 C 583.707031 397.660156 585.476562 399.429688 585.476562 401.609375 C 585.476562 403.792969 583.707031 405.5625 581.523438 405.5625 Z M 581.523438 405.5625 " fill-opacity="1" fill-rule="nonzero"/><path fill="#ffffff" d="M 652.910156 373.949219 L 613.382812 373.949219 C 611.203125 373.949219 609.429688 372.179688 609.429688 369.996094 C 609.429688 367.816406 611.203125 366.046875 613.382812 366.046875 L 652.910156 366.046875 C 655.09375 366.046875 656.863281 367.816406 656.863281 369.996094 C 656.863281 372.179688 655.101562 373.949219 652.910156 373.949219 Z M 652.910156 373.949219 " fill-opacity="1" fill-rule="nonzero"/><path fill="#ffffff" d="M 629.195312 421.371094 L 613.382812 421.371094 C 611.203125 421.371094 609.429688 419.597656 609.429688 417.417969 C 609.429688 415.238281 611.203125 413.464844 613.382812 413.464844 L 629.195312 413.464844 C 631.375 413.464844 633.148438 415.238281 633.148438 417.417969 C 633.148438 419.597656 631.375 421.371094 629.195312 421.371094 Z M 629.195312 421.371094 " fill-opacity="1" fill-rule="nonzero"/><path fill="#fdfcef" d="M 202.292969 180.320312 L 202.292969 184.269531 L 226.011719 184.269531 L 226.011719 180.320312 C 226.011719 180.320312 259.546875 180.320312 269.492188 180.320312 C 289.136719 180.320312 305.066406 164.394531 305.066406 144.753906 C 305.066406 126.316406 290.980469 111.332031 273.007812 109.542969 C 273.183594 108.113281 273.445312 106.714844 273.445312 105.238281 C 273.445312 85.597656 257.515625 69.671875 237.871094 69.671875 C 226.5 69.671875 216.5 75.09375 209.984375 83.394531 C 208.878906 62.558594 191.789062 45.960938 170.671875 45.960938 C 148.84375 45.960938 131.144531 63.660156 131.144531 85.480469 C 131.144531 89.003906 131.753906 92.355469 132.621094 95.613281 C 127.546875 89.46875 119.964844 85.480469 111.378906 85.480469 C 97.300781 85.480469 85.8125 96.03125 84.066406 109.625 C 82.636719 109.449219 81.234375 109.1875 79.757812 109.1875 C 60.113281 109.1875 44.183594 125.113281 44.183594 144.753906 C 44.183594 164.394531 60.113281 180.320312 79.757812 180.320312 C 99.402344 180.320312 154.859375 180.320312 154.859375 180.320312 Z M 202.292969 180.320312 " fill-opacity="1" fill-rule="nonzero"/><path fill="#472b29" d="M 170.671875 42.011719 C 146.695312 42.011719 127.191406 61.507812 127.191406 85.480469 C 127.191406 85.605469 127.191406 85.722656 127.191406 85.851562 C 122.433594 83.046875 116.992188 81.527344 111.378906 81.527344 C 96.90625 81.527344 84.414062 91.492188 80.878906 105.277344 C 80.507812 105.253906 80.136719 105.238281 79.757812 105.238281 C 57.960938 105.238281 40.230469 122.964844 40.230469 144.753906 C 40.230469 166.542969 57.960938 184.269531 79.757812 184.269531 L 202.292969 184.269531 C 204.476562 184.269531 206.246094 182.5 206.246094 180.320312 C 206.246094 178.136719 204.476562 176.367188 202.292969 176.367188 L 79.757812 176.367188 C 62.316406 176.367188 48.136719 162.1875 48.136719 144.753906 C 48.136719 127.320312 62.316406 113.140625 79.757812 113.140625 C 80.683594 113.140625 81.574219 113.273438 82.46875 113.394531 L 83.585938 113.542969 C 83.75 113.566406 83.910156 113.574219 84.074219 113.574219 C 86.019531 113.574219 87.726562 112.113281 87.988281 110.121094 C 89.496094 98.320312 99.554688 89.429688 111.378906 89.429688 C 118.375 89.429688 125 92.601562 129.570312 98.125 C 130.34375 99.058594 131.476562 99.5625 132.621094 99.5625 C 133.238281 99.5625 133.855469 99.421875 134.425781 99.121094 C 136.078125 98.273438 136.90625 96.386719 136.433594 94.59375 C 135.523438 91.152344 135.097656 88.261719 135.097656 85.480469 C 135.097656 65.871094 151.058594 49.914062 170.671875 49.914062 C 189.496094 49.914062 205.039062 64.710938 206.042969 83.605469 C 206.128906 85.25 207.226562 86.664062 208.800781 87.164062 C 209.195312 87.289062 209.597656 87.351562 210.003906 87.351562 C 211.1875 87.351562 212.34375 86.808594 213.101562 85.835938 C 219.195312 78.074219 228.214844 73.625 237.871094 73.625 C 255.308594 73.625 269.492188 87.804688 269.492188 105.238281 C 269.492188 106.164062 269.355469 107.054688 269.238281 107.949219 L 269.089844 109.0625 C 268.960938 110.121094 269.261719 111.179688 269.925781 112.011719 C 270.589844 112.839844 271.5625 113.371094 272.613281 113.472656 C 288.867188 115.09375 301.113281 128.542969 301.113281 144.753906 C 301.113281 162.1875 286.929688 176.367188 269.492188 176.367188 L 226.011719 176.367188 C 223.828125 176.367188 222.058594 178.136719 222.058594 180.320312 C 222.058594 182.5 223.828125 184.269531 226.011719 184.269531 L 269.492188 184.269531 C 291.289062 184.269531 309.019531 166.542969 309.019531 144.753906 C 309.019531 125.808594 295.667969 109.875 277.375 106.210938 C 277.390625 105.886719 277.398438 105.5625 277.398438 105.238281 C 277.398438 83.449219 259.664062 65.722656 237.871094 65.722656 C 228.574219 65.722656 219.742188 69.007812 212.707031 74.921875 C 207.976562 55.921875 190.871094 42.011719 170.671875 42.011719 Z M 170.671875 42.011719 " fill-opacity="1" fill-rule="nonzero"/><path fill="#472b29" d="M 158.8125 97.335938 C 147.722656 97.335938 138.1875 105.230469 135.785156 115.835938 C 132.882812 114.082031 129.570312 113.140625 126.203125 113.140625 C 116.699219 113.140625 108.828125 120.230469 107.601562 129.484375 C 105.996094 129.121094 104.46875 128.949219 102.976562 128.949219 C 90.890625 128.949219 80.753906 138.429688 79.90625 150.539062 C 79.835938 151.628906 80.660156 152.578125 81.742188 152.65625 C 81.789062 152.65625 81.835938 152.65625 81.882812 152.65625 C 82.914062 152.65625 83.78125 151.859375 83.851562 150.824219 C 84.554688 140.777344 92.953125 132.898438 102.976562 132.898438 C 104.785156 132.898438 106.691406 133.230469 108.8125 133.902344 C 108.984375 133.957031 109.167969 133.980469 109.339844 133.980469 C 109.773438 133.980469 110.210938 133.824219 110.574219 133.554688 C 111.078125 133.191406 111.378906 132.542969 111.378906 131.910156 C 111.378906 123.738281 118.027344 117.09375 126.203125 117.09375 C 129.738281 117.09375 133.199219 118.421875 135.933594 120.832031 C 136.304688 121.15625 136.773438 121.328125 137.238281 121.328125 C 137.492188 121.328125 137.738281 121.28125 137.972656 121.179688 C 138.671875 120.902344 139.144531 120.253906 139.199219 119.503906 C 140.023438 109.285156 148.632812 101.285156 158.8125 101.285156 C 160.457031 101.285156 162.171875 101.554688 164.207031 102.132812 C 164.386719 102.1875 164.578125 102.210938 164.757812 102.210938 C 165.621094 102.210938 166.394531 101.632812 166.648438 100.773438 C 166.949219 99.722656 166.339844 98.628906 165.289062 98.332031 C 162.902344 97.652344 160.835938 97.335938 158.8125 97.335938 Z M 158.8125 97.335938 " fill-opacity="1" fill-rule="nonzero"/><path fill="#472b29" d="M 268.566406 109.1875 C 258.082031 109.1875 248.738281 116.277344 245.847656 126.433594 C 245.546875 127.484375 246.152344 128.574219 247.207031 128.875 C 247.394531 128.921875 247.578125 128.949219 247.75 128.949219 C 248.613281 128.949219 249.402344 128.378906 249.648438 127.507812 C 252.058594 119.050781 259.839844 113.140625 268.566406 113.140625 C 269.492188 113.140625 270.386719 113.25 271.269531 113.371094 C 271.363281 113.386719 271.453125 113.394531 271.546875 113.394531 C 272.503906 113.394531 273.355469 112.667969 273.492188 111.679688 C 273.640625 110.597656 272.882812 109.601562 271.800781 109.457031 C 270.742188 109.316406 269.664062 109.1875 268.566406 109.1875 Z M 268.566406 109.1875 " fill-opacity="1" fill-rule="nonzero"/><path fill="#fdfcef" d="M 613.382812 322.578125 C 613.382812 322.578125 625.773438 322.578125 641.054688 322.578125 C 656.335938 322.578125 668.722656 310.195312 668.722656 294.917969 C 668.722656 280.839844 658.167969 269.355469 644.570312 267.609375 C 644.792969 266.195312 645.007812 264.78125 645.007812 263.304688 C 645.007812 248.027344 632.617188 235.640625 617.335938 235.640625 C 609.179688 235.640625 601.921875 239.238281 596.859375 244.847656 C 593.824219 230.558594 581.152344 219.835938 565.949219 219.835938 C 548.488281 219.835938 534.328125 233.988281 534.328125 251.449219 C 534.328125 252.957031 534.566406 254.40625 534.769531 255.859375 C 531.386719 253.140625 527.148438 251.449219 522.46875 251.449219 C 512.761719 251.449219 504.722656 258.457031 503.0625 267.691406 C 501.644531 267.46875 500.230469 267.253906 498.753906 267.253906 C 483.472656 267.253906 471.082031 279.640625 471.082031 294.917969 C 471.082031 310.195312 483.472656 322.578125 498.753906 322.578125 C 514.035156 322.578125 558.042969 322.578125 558.042969 322.578125 L 558.042969 326.53125 L 613.382812 326.53125 Z M 613.382812 322.578125 " fill-opacity="1" fill-rule="nonzero"/><path fill="#472b29" d="M 627.21875 287.011719 C 626.128906 287.011719 625.242188 286.128906 625.242188 285.039062 C 625.242188 275.371094 633.109375 267.507812 642.777344 267.507812 C 643.046875 267.578125 648.601562 267.5 652.609375 268.582031 C 653.664062 268.867188 654.289062 269.949219 654.003906 271 C 653.71875 272.058594 652.636719 272.683594 651.582031 272.390625 C 648.074219 271.445312 642.886719 271.445312 642.785156 271.460938 C 635.289062 271.460938 629.195312 277.554688 629.195312 285.039062 C 629.195312 286.128906 628.308594 287.011719 627.21875 287.011719 Z M 627.21875 287.011719 " fill-opacity="1" fill-rule="nonzero"/><path fill="#472b29" d="M 577.808594 322.578125 C 577.808594 322.835938 577.785156 323.09375 577.734375 323.347656 C 577.683594 323.605469 577.605469 323.851562 577.507812 324.089844 C 577.410156 324.328125 577.285156 324.558594 577.140625 324.773438 C 577 324.988281 576.835938 325.1875 576.652344 325.371094 C 576.46875 325.554688 576.269531 325.71875 576.050781 325.863281 C 575.835938 326.007812 575.609375 326.128906 575.367188 326.230469 C 575.128906 326.328125 574.882812 326.402344 574.628906 326.453125 C 574.371094 326.503906 574.117188 326.53125 573.855469 326.53125 C 573.597656 326.53125 573.339844 326.503906 573.085938 326.453125 C 572.832031 326.402344 572.582031 326.328125 572.34375 326.230469 C 572.101562 326.128906 571.875 326.007812 571.660156 325.863281 C 571.445312 325.71875 571.246094 325.554688 571.0625 325.371094 C 570.878906 325.1875 570.714844 324.988281 570.570312 324.773438 C 570.425781 324.558594 570.304688 324.328125 570.203125 324.089844 C 570.105469 323.851562 570.03125 323.605469 569.980469 323.347656 C 569.929688 323.09375 569.902344 322.835938 569.902344 322.578125 C 569.902344 322.320312 569.929688 322.0625 569.980469 321.808594 C 570.03125 321.550781 570.105469 321.304688 570.203125 321.066406 C 570.304688 320.824219 570.425781 320.597656 570.570312 320.382812 C 570.714844 320.167969 570.878906 319.96875 571.0625 319.785156 C 571.246094 319.601562 571.445312 319.4375 571.660156 319.292969 C 571.875 319.148438 572.101562 319.027344 572.34375 318.925781 C 572.582031 318.828125 572.832031 318.753906 573.085938 318.703125 C 573.339844 318.652344 573.597656 318.625 573.855469 318.625 C 574.117188 318.625 574.371094 318.652344 574.628906 318.703125 C 574.882812 318.753906 575.128906 318.828125 575.367188 318.925781 C 575.609375 319.027344 575.835938 319.148438 576.050781 319.292969 C 576.269531 319.4375 576.46875 319.601562 576.652344 319.785156 C 576.835938 319.96875 577 320.167969 577.140625 320.382812 C 577.285156 320.597656 577.410156 320.824219 577.507812 321.066406 C 577.605469 321.304688 577.683594 321.550781 577.734375 321.808594 C 577.785156 322.0625 577.808594 322.320312 577.808594 322.578125 Z M 577.808594 322.578125 " fill-opacity="1" fill-rule="nonzero"/><path fill="#472b29" d="M 641.054688 326.53125 L 613.382812 326.53125 C 611.203125 326.53125 609.429688 324.757812 609.429688 322.578125 C 609.429688 320.398438 611.203125 318.625 613.382812 318.625 L 641.054688 318.625 C 654.128906 318.625 664.769531 307.988281 664.769531 294.917969 C 664.769531 283.09375 655.875 273.039062 644.074219 271.53125 C 643.015625 271.386719 642.058594 270.835938 641.417969 269.980469 C 640.777344 269.128906 640.507812 268.054688 640.671875 267.003906 C 640.855469 265.785156 641.054688 264.566406 641.054688 263.304688 C 641.054688 250.230469 630.414062 239.59375 617.335938 239.59375 C 610.617188 239.59375 604.386719 242.398438 599.792969 247.496094 C 598.804688 248.59375 597.257812 249.0625 595.839844 248.667969 C 594.402344 248.277344 593.304688 247.125 592.996094 245.671875 C 590.300781 232.996094 578.921875 223.785156 565.949219 223.785156 C 550.691406 223.785156 538.28125 236.195312 538.28125 251.449219 C 538.28125 252.578125 538.445312 253.660156 538.605469 254.753906 C 538.835938 256.355469 538.105469 258.214844 536.691406 259.019531 C 535.277344 259.824219 533.5625 259.953125 532.296875 258.941406 C 529.410156 256.625 526.019531 255.398438 522.46875 255.398438 C 514.832031 255.398438 508.304688 260.863281 506.949219 268.394531 C 506.570312 270.503906 504.609375 271.917969 502.453125 271.59375 C 501.234375 271.40625 500.019531 271.207031 498.753906 271.207031 C 485.675781 271.207031 475.035156 281.84375 475.035156 294.917969 C 475.035156 307.988281 485.675781 318.625 498.753906 318.625 L 558.042969 318.625 C 560.226562 318.625 561.996094 320.398438 561.996094 322.578125 C 561.996094 324.757812 560.226562 326.53125 558.042969 326.53125 L 498.753906 326.53125 C 481.3125 326.53125 467.128906 312.351562 467.128906 294.917969 C 467.128906 277.480469 481.3125 263.304688 498.753906 263.304688 C 499.21875 263.304688 499.671875 263.320312 500.128906 263.351562 C 503.402344 253.976562 512.28125 247.496094 522.46875 247.496094 C 525.230469 247.496094 527.917969 247.980469 530.460938 248.917969 C 531.765625 230.480469 547.183594 215.882812 565.949219 215.882812 C 580.425781 215.882812 593.351562 224.789062 598.78125 237.808594 C 604.15625 233.871094 610.65625 231.691406 617.335938 231.691406 C 634.777344 231.691406 648.957031 245.867188 648.957031 263.304688 C 648.957031 263.683594 648.949219 264.054688 648.925781 264.425781 C 662.707031 267.964844 672.675781 280.445312 672.675781 294.917969 C 672.675781 312.351562 658.492188 326.53125 641.054688 326.53125 Z M 641.054688 326.53125 " fill-opacity="1" fill-rule="nonzero"/><path fill="#472b29" d="M 597.574219 318.625 C 596.316406 318.625 590.925781 318.625 589.667969 318.625 C 587.484375 318.625 585.714844 320.398438 585.714844 322.578125 C 585.714844 324.757812 587.484375 326.53125 589.667969 326.53125 C 590.925781 326.53125 596.316406 326.53125 597.574219 326.53125 C 599.753906 326.53125 601.523438 324.757812 601.523438 322.578125 C 601.523438 320.398438 599.753906 318.625 597.574219 318.625 Z M 597.574219 318.625 " fill-opacity="1" fill-rule="nonzero"/><path fill="#cbc9bc" d="M 415.902344 439.546875 C 412.289062 439.546875 409.609375 437.570312 409.46875 435.800781 L 401.5 339.246094 L 401.507812 324.160156 L 477.40625 324.160156 L 477.40625 339.703125 L 469.464844 435.800781 C 469.3125 437.570312 466.640625 439.546875 463.019531 439.546875 Z M 415.902344 439.546875 " fill-opacity="1" fill-rule="nonzero"/><path fill="#472b29" d="M 471.875 329.691406 L 471.875 339.246094 L 464.0625 433.878906 C 463.792969 433.960938 463.445312 434.023438 463.019531 434.023438 L 415.902344 434.023438 C 415.476562 434.023438 415.121094 433.960938 414.859375 433.878906 L 407.046875 339.246094 L 407.046875 329.691406 L 471.875 329.691406 M 482.941406 318.625 L 395.980469 318.625 L 395.980469 339.703125 L 403.949219 436.257812 C 404.359375 441.214844 409.585938 445.078125 415.902344 445.078125 L 463.011719 445.078125 C 469.328125 445.078125 474.5625 441.214844 474.964844 436.25 L 482.941406 339.703125 Z M 482.941406 318.625 " fill-opacity="1" fill-rule="nonzero"/><path fill="#472b29" d="M 439.460938 445.078125 C 437.277344 445.078125 435.507812 443.308594 435.507812 441.128906 L 435.507812 401.609375 C 435.507812 399.429688 437.277344 397.660156 439.460938 397.660156 C 441.644531 397.660156 443.414062 399.429688 443.414062 401.609375 L 443.414062 441.128906 C 443.414062 443.308594 441.644531 445.078125 439.460938 445.078125 Z M 439.460938 445.078125 " fill-opacity="1" fill-rule="nonzero"/><path fill="#472b29" d="M 439.460938 389.757812 C 437.277344 389.757812 435.507812 387.984375 435.507812 385.804688 L 435.507812 362.09375 C 435.507812 359.914062 437.277344 358.144531 439.460938 358.144531 C 441.644531 358.144531 443.414062 359.914062 443.414062 362.09375 L 443.414062 385.804688 C 443.414062 387.984375 441.644531 389.757812 439.460938 389.757812 Z M 439.460938 389.757812 " fill-opacity="1" fill-rule="nonzero"/><path fill="#fabf82" d="M 368.3125 263.304688 L 368.3125 344.691406 C 368.3125 352.121094 375.394531 358.144531 384.121094 358.144531 C 392.851562 358.144531 399.933594 352.121094 399.933594 344.691406 L 399.933594 263.304688 Z M 368.3125 263.304688 " fill-opacity="1" fill-rule="nonzero"/><path fill="#472b29" d="M 384.121094 362.09375 C 373.226562 362.09375 364.359375 354.285156 364.359375 344.691406 L 364.359375 259.351562 L 403.886719 259.351562 L 403.886719 344.691406 C 403.886719 354.285156 395.015625 362.09375 384.121094 362.09375 Z M 372.265625 267.253906 L 372.265625 344.691406 C 372.265625 349.929688 377.585938 354.191406 384.121094 354.191406 C 390.660156 354.191406 395.980469 349.929688 395.980469 344.691406 L 395.980469 267.253906 Z M 372.265625 267.253906 " fill-opacity="1" fill-rule="nonzero"/><path fill="#fabf82" d="M 478.988281 259.351562 L 478.988281 344.128906 C 478.988281 351.867188 486.074219 358.144531 494.800781 358.144531 C 503.527344 358.144531 510.613281 351.867188 510.613281 344.128906 L 510.613281 259.351562 Z M 478.988281 259.351562 " fill-opacity="1" fill-rule="nonzero"/><path fill="#472b29" d="M 494.800781 362.09375 C 483.90625 362.09375 475.035156 354.035156 475.035156 344.128906 L 475.035156 255.398438 L 514.5625 255.398438 L 514.5625 344.128906 C 514.5625 354.035156 505.695312 362.09375 494.800781 362.09375 Z M 482.941406 263.304688 L 482.941406 344.128906 C 482.941406 349.679688 488.261719 354.191406 494.800781 354.191406 C 501.339844 354.191406 506.660156 349.679688 506.660156 344.128906 L 506.660156 263.304688 Z M 482.941406 263.304688 " fill-opacity="1" fill-rule="nonzero"/><path fill="#ee3e54" d="M 398.945312 344.707031 C 396.003906 344.707031 393.609375 342.3125 393.609375 339.371094 L 393.609375 273.578125 L 369.890625 273.578125 L 369.890625 262.972656 C 369.890625 228.804688 398.714844 213.511719 427.269531 213.511719 L 459.550781 213.511719 C 491.457031 213.511719 509.023438 231.082031 509.023438 262.972656 L 509.023438 273.578125 L 485.304688 273.578125 L 485.304688 339.371094 C 485.304688 342.3125 482.910156 344.707031 479.96875 344.707031 Z M 398.945312 344.707031 " fill-opacity="1" fill-rule="nonzero"/><path fill="#472b29" d="M 459.558594 219.046875 C 488.300781 219.046875 503.496094 234.234375 503.496094 262.980469 L 503.496094 268.046875 L 479.78125 268.046875 L 479.78125 279.109375 L 479.976562 339.175781 L 399.144531 339.371094 L 399.144531 268.046875 L 375.425781 268.046875 L 375.425781 262.972656 C 375.425781 232.621094 401.46875 219.039062 427.269531 219.039062 L 459.558594 219.039062 M 459.558594 207.980469 L 427.277344 207.980469 C 392.527344 207.980469 364.359375 228.238281 364.359375 262.972656 L 364.359375 279.109375 L 388.074219 279.109375 L 388.074219 339.371094 C 388.074219 345.371094 392.945312 350.238281 398.945312 350.238281 L 479.976562 350.238281 C 485.976562 350.238281 490.847656 345.371094 490.847656 339.371094 L 490.847656 279.109375 L 514.5625 279.109375 L 514.5625 262.972656 C 514.5625 228.238281 494.300781 207.980469 459.558594 207.980469 Z M 459.558594 207.980469 " fill-opacity="1" fill-rule="nonzero"/><path fill="#fabf82" d="M 439.839844 229.199219 C 434.566406 229.199219 430.503906 227.800781 427.785156 225.050781 C 423.632812 220.855469 423.65625 214.644531 423.65625 214.585938 L 423.65625 190.515625 L 455.273438 190.515625 L 455.273438 214.515625 C 455.28125 214.808594 455.558594 220.980469 451.636719 225.113281 C 449.042969 227.824219 445.082031 229.199219 439.839844 229.199219 Z M 439.839844 229.199219 " fill-opacity="1" fill-rule="nonzero"/><path fill="#472b29" d="M 451.304688 194.464844 L 451.304688 214.515625 L 451.3125 214.777344 L 451.320312 214.925781 C 451.320312 214.976562 451.460938 219.574219 448.71875 222.433594 C 446.917969 224.300781 443.9375 225.25 439.839844 225.25 C 429.222656 225.25 427.617188 218.578125 427.601562 214.515625 L 427.601562 194.464844 L 451.304688 194.464844 M 459.210938 186.5625 L 419.699219 186.5625 L 419.699219 214.515625 C 419.699219 214.515625 419.269531 233.152344 439.839844 233.152344 C 460.410156 233.152344 459.210938 214.515625 459.210938 214.515625 Z M 459.210938 186.5625 " fill-opacity="1" fill-rule="nonzero"/><path fill="#fabf82" d="M 439.238281 202.449219 C 427.949219 202.449219 417.355469 198.007812 409.414062 189.953125 C 401.46875 181.890625 397.183594 171.238281 397.347656 159.945312 C 397.671875 137.894531 416.566406 118.996094 438.625 118.679688 L 438.632812 118.679688 C 462.347656 118.679688 481.140625 137.46875 481.140625 160.5625 C 481.132812 183.652344 462.339844 202.449219 439.238281 202.449219 Z M 439.238281 202.449219 " fill-opacity="1" fill-rule="nonzero"/><path fill="#472b29" d="M 439.238281 124.207031 C 459.289062 124.207031 475.605469 140.511719 475.605469 160.5625 C 475.605469 180.609375 459.289062 196.914062 439.238281 196.914062 C 429.445312 196.914062 420.25 193.058594 413.347656 186.066406 C 406.457031 179.070312 402.730469 169.824219 402.875 160.023438 C 403.152344 140.890625 419.554688 124.488281 438.695312 124.214844 L 439.238281 124.207031 M 439.238281 113.140625 C 439.011719 113.140625 438.773438 113.140625 438.542969 113.140625 C 413.371094 113.503906 392.179688 134.691406 391.8125 159.855469 C 391.425781 186.332031 412.84375 207.980469 439.238281 207.980469 C 465.398438 207.980469 486.671875 186.71875 486.671875 160.5625 C 486.671875 134.402344 465.398438 113.140625 439.238281 113.140625 Z M 439.238281 113.140625 " fill-opacity="1" fill-rule="nonzero"/><path fill="#472b29" d="M 438.441406 105.261719 C 460.433594 106.851562 476.671875 123.28125 476.671875 135.285156 C 476.671875 135.285156 476.671875 135.285156 449.847656 136.714844 C 429.902344 136.976562 390.9375 139.039062 396.519531 111.277344 C 412.789062 113.527344 418.070312 104.707031 438.441406 105.261719 Z M 438.441406 105.261719 " fill-opacity="1" fill-rule="nonzero"/><path fill="#472b29" d="M 438.773438 142.382812 C 423.214844 142.382812 404.179688 141.023438 395.292969 130.371094 C 390.875 125.074219 389.464844 118.277344 391.085938 110.183594 L 392.113281 105.078125 L 397.277344 105.789062 C 404.296875 106.761719 408.820312 105.339844 414.535156 103.546875 C 420.667969 101.617188 427.617188 99.4375 438.589844 99.730469 L 438.835938 99.746094 C 463.660156 101.539062 482.199219 119.992188 482.199219 135.285156 L 482.199219 140.535156 L 446.898438 142.296875 C 444.371094 142.335938 441.628906 142.382812 438.773438 142.382812 Z M 401.539062 117.179688 C 401.679688 119.621094 402.421875 121.636719 403.808594 123.289062 C 410.929688 131.832031 433.359375 131.460938 446.726562 131.230469 L 449.777344 131.183594 L 469.859375 130.109375 C 466.015625 121.730469 453.882812 111.964844 438.164062 110.785156 C 429.191406 110.554688 423.398438 112.359375 417.855469 114.105469 C 413.03125 115.621094 408.085938 117.179688 401.664062 117.179688 C 401.625 117.179688 401.578125 117.179688 401.539062 117.179688 Z M 401.539062 117.179688 " fill-opacity="1" fill-rule="nonzero"/><path fill="#fabf82" d="M 241.980469 439.546875 C 238.367188 439.546875 235.6875 437.570312 235.546875 435.800781 L 227.578125 339.246094 L 227.585938 324.160156 L 303.484375 324.160156 L 303.484375 339.703125 L 295.539062 435.800781 C 295.390625 437.570312 292.71875 439.546875 289.097656 439.546875 Z M 241.980469 439.546875 " fill-opacity="1" fill-rule="nonzero"/><path fill="#472b29" d="M 297.953125 329.691406 L 297.953125 339.246094 L 290.140625 433.878906 C 289.871094 433.960938 289.523438 434.023438 289.097656 434.023438 L 241.980469 434.023438 C 241.554688 434.023438 241.199219 433.960938 240.9375 433.878906 L 233.125 339.246094 L 233.125 329.691406 L 297.953125 329.691406 M 309.019531 318.625 L 222.058594 318.625 L 222.058594 339.703125 L 230.027344 436.257812 C 230.4375 441.214844 235.664062 445.078125 241.980469 445.078125 L 289.089844 445.078125 C 295.40625 445.078125 300.640625 441.214844 301.042969 436.25 L 309.019531 339.703125 Z M 309.019531 318.625 " fill-opacity="1" fill-rule="nonzero"/><path fill="#472b29" d="M 265.539062 445.078125 C 263.355469 445.078125 261.585938 443.308594 261.585938 441.128906 L 261.585938 401.609375 C 261.585938 399.429688 263.355469 397.660156 265.539062 397.660156 C 267.71875 397.660156 269.492188 399.429688 269.492188 401.609375 L 269.492188 441.128906 C 269.492188 443.308594 267.71875 445.078125 265.539062 445.078125 Z M 265.539062 445.078125 " fill-opacity="1" fill-rule="nonzero"/><path fill="#fabf82" d="M 194.386719 267.097656 L 194.386719 345.230469 C 194.386719 352.359375 201.472656 358.144531 210.199219 358.144531 C 218.925781 358.144531 226.011719 352.367188 226.011719 345.230469 L 226.011719 267.097656 Z M 194.386719 267.097656 " fill-opacity="1" fill-rule="nonzero"/><path fill="#472b29" d="M 210.199219 362.09375 C 199.304688 362.09375 190.4375 354.53125 190.4375 345.230469 L 190.4375 263.144531 L 229.964844 263.144531 L 229.964844 345.230469 C 229.964844 354.53125 221.09375 362.09375 210.199219 362.09375 Z M 198.339844 271.046875 L 198.339844 345.230469 C 198.339844 350.167969 203.660156 354.191406 210.199219 354.191406 C 216.738281 354.191406 222.058594 350.167969 222.058594 345.230469 L 222.058594 271.046875 Z M 198.339844 271.046875 " fill-opacity="1" fill-rule="nonzero"/><path fill="#fabf82" d="M 305.066406 263.304688 L 305.066406 344.691406 C 305.066406 352.121094 312.148438 358.144531 320.878906 358.144531 C 329.605469 358.144531 336.6875 352.121094 336.6875 344.691406 L 336.6875 263.304688 Z M 305.066406 263.304688 " fill-opacity="1" fill-rule="nonzero"/><path fill="#472b29" d="M 320.878906 362.09375 C 309.984375 362.09375 301.113281 354.285156 301.113281 344.691406 L 301.113281 259.351562 L 340.640625 259.351562 L 340.640625 344.691406 C 340.640625 354.285156 331.773438 362.09375 320.878906 362.09375 Z M 309.019531 267.253906 L 309.019531 344.691406 C 309.019531 349.929688 314.339844 354.191406 320.878906 354.191406 C 327.414062 354.191406 332.734375 349.929688 332.734375 344.691406 L 332.734375 267.253906 Z M 309.019531 267.253906 " fill-opacity="1" fill-rule="nonzero"/><path fill="#fbcd59" d="M 211.9375 384.222656 C 210.097656 384.222656 208.421875 383.457031 207.210938 382.066406 C 206.011719 380.675781 205.488281 378.90625 205.742188 377.085938 L 220.121094 276.445312 L 196.074219 260.417969 C 198.253906 230.046875 234.46875 213.519531 253.355469 213.519531 L 285.632812 213.519531 C 301.359375 214.328125 332.742188 234.914062 334.988281 260.433594 L 310.957031 276.445312 L 325.335938 377.085938 C 325.597656 378.914062 325.074219 380.675781 323.867188 382.066406 C 322.65625 383.457031 320.980469 384.222656 319.136719 384.222656 Z M 211.9375 384.222656 " fill-opacity="1" fill-rule="nonzero"/><path fill="#472b29" d="M 285.320312 219.046875 C 299.191406 219.9375 324.902344 237.230469 329.011719 257.753906 L 310.78125 269.902344 L 304.980469 273.773438 L 305.96875 280.675781 L 319.859375 377.863281 C 319.875 377.957031 319.90625 378.195312 319.691406 378.4375 C 319.46875 378.691406 319.234375 378.691406 319.136719 378.691406 L 211.9375 378.691406 C 211.851562 378.691406 211.605469 378.691406 211.394531 378.4375 C 211.179688 378.195312 211.210938 377.949219 211.226562 377.863281 L 225.117188 280.675781 L 226.105469 273.773438 L 220.304688 269.902344 L 201.992188 257.699219 C 206.136719 233.578125 236.367188 219.046875 253.363281 219.046875 L 285.320312 219.046875 M 285.632812 207.980469 L 253.355469 207.980469 C 229.964844 207.980469 190.4375 228.570312 190.4375 263.304688 L 214.152344 279.109375 L 200.261719 376.296875 C 199.25 383.402344 204.761719 389.757812 211.9375 389.757812 L 319.136719 389.757812 C 326.316406 389.757812 331.828125 383.402344 330.816406 376.296875 L 316.925781 279.109375 L 340.640625 263.304688 C 340.640625 232.929688 305.066406 208.96875 285.632812 207.980469 Z M 285.632812 207.980469 " fill-opacity="1" fill-rule="nonzero"/><path fill="#fabf82" d="M 265.917969 229.199219 C 260.644531 229.199219 256.582031 227.800781 253.863281 225.050781 C 249.710938 220.855469 249.734375 214.644531 249.734375 214.585938 L 249.734375 190.515625 L 281.351562 190.515625 L 281.351562 214.515625 C 281.359375 214.808594 281.632812 220.980469 277.714844 225.113281 C 275.121094 227.824219 271.160156 229.199219 265.917969 229.199219 Z M 265.917969 229.199219 " fill-opacity="1" fill-rule="nonzero"/><path fill="#472b29" d="M 277.382812 194.464844 L 277.382812 214.515625 L 277.390625 214.777344 L 277.398438 214.925781 C 277.398438 214.976562 277.539062 219.574219 274.796875 222.433594 C 272.992188 224.300781 270.011719 225.25 265.917969 225.25 C 255.300781 225.25 253.695312 218.578125 253.679688 214.515625 L 253.679688 194.464844 L 277.382812 194.464844 M 285.285156 186.5625 L 245.773438 186.5625 L 245.773438 214.515625 C 245.773438 214.515625 245.347656 233.152344 265.917969 233.152344 C 286.488281 233.152344 285.285156 214.515625 285.285156 214.515625 Z M 285.285156 186.5625 " fill-opacity="1" fill-rule="nonzero"/><path fill="#fabf82" d="M 265.316406 202.449219 C 254.027344 202.449219 243.433594 198.007812 235.488281 189.953125 C 227.542969 181.890625 223.257812 171.238281 223.425781 159.945312 C 223.75 137.894531 242.644531 118.996094 264.699219 118.679688 L 264.707031 118.679688 C 288.425781 118.679688 307.21875 137.46875 307.21875 160.5625 C 307.207031 183.652344 288.417969 202.449219 265.316406 202.449219 Z M 265.316406 202.449219 " fill-opacity="1" fill-rule="nonzero"/><path fill="#472b29" d="M 265.316406 124.207031 C 285.367188 124.207031 301.683594 140.511719 301.683594 160.5625 C 301.683594 180.609375 285.367188 196.914062 265.316406 196.914062 C 255.523438 196.914062 246.328125 193.058594 239.425781 186.066406 C 232.53125 179.070312 228.808594 169.824219 228.953125 160.023438 C 229.226562 140.890625 245.632812 124.488281 264.773438 124.214844 L 265.316406 124.207031 M 265.316406 113.140625 C 265.089844 113.140625 264.851562 113.140625 264.621094 113.140625 C 239.449219 113.503906 218.253906 134.691406 217.890625 159.855469 C 217.503906 186.332031 238.921875 207.980469 265.316406 207.980469 C 291.476562 207.980469 312.75 186.71875 312.75 160.5625 C 312.75 134.402344 291.476562 113.140625 265.316406 113.140625 Z M 265.316406 113.140625 " fill-opacity="1" fill-rule="nonzero"/><path fill="#472b29" d="M 307.335938 140.800781 C 302.09375 122.261719 284.9375 108.683594 264.667969 108.976562 C 245.347656 109.253906 228.613281 122.871094 223.355469 140.800781 Z M 307.335938 140.800781 " fill-opacity="1" fill-rule="nonzero"/><path fill="#472b29" d="M 307.34375 146.335938 L 223.363281 146.335938 C 221.617188 146.335938 219.980469 145.511719 218.933594 144.121094 C 217.890625 142.722656 217.558594 140.921875 218.050781 139.246094 C 224.144531 118.46875 243.277344 103.742188 264.597656 103.445312 C 287.042969 103.183594 306.609375 117.867188 312.671875 139.300781 C 313.144531 140.96875 312.804688 142.761719 311.753906 144.144531 C 310.703125 145.519531 309.074219 146.335938 307.34375 146.335938 Z M 231.535156 135.269531 L 299.25 135.269531 C 292.726562 122.554688 279.53125 114.261719 264.757812 114.507812 C 250.777344 114.707031 238.003906 122.941406 231.535156 135.269531 Z M 231.535156 135.269531 " fill-opacity="1" fill-rule="nonzero"/><path fill="#472b29" d="M 194.386719 188.222656 C 178.578125 172.414062 176.300781 132.242188 226.011719 132.898438 L 226.011719 140.800781 C 226.011719 140.800781 202.292969 148.707031 194.386719 188.222656 Z M 194.386719 188.222656 " fill-opacity="1" fill-rule="nonzero"/><path fill="#472b29" d="M 194.386719 193.753906 C 192.941406 193.753906 191.527344 193.183594 190.476562 192.132812 C 181.066406 182.722656 174.949219 165.113281 181.472656 149.652344 C 185.050781 141.15625 195.234375 126.925781 226.082031 127.367188 C 229.109375 127.40625 231.542969 129.871094 231.542969 132.898438 L 231.542969 140.800781 C 231.542969 143.179688 230.019531 145.300781 227.757812 146.050781 C 226.960938 146.335938 206.910156 153.828125 199.8125 189.304688 C 199.410156 191.304688 197.9375 192.925781 195.984375 193.515625 C 195.464844 193.675781 194.925781 193.753906 194.386719 193.753906 Z M 218.003906 138.722656 C 204.414062 139.980469 195.367188 145.171875 191.660156 153.953125 C 188.863281 160.570312 189.582031 168.289062 192.183594 174.769531 C 199.1875 153.503906 210.832031 143.253906 218.003906 138.722656 Z M 218.003906 138.722656 " fill-opacity="1" fill-rule="nonzero"/><path fill="#472b29" d="M 336.6875 188.222656 C 352.5 172.414062 354.777344 132.242188 305.066406 132.898438 L 305.066406 140.800781 C 305.066406 140.800781 328.785156 148.707031 336.6875 188.222656 Z M 336.6875 188.222656 " fill-opacity="1" fill-rule="nonzero"/><path fill="#472b29" d="M 336.6875 193.753906 C 336.152344 193.753906 335.613281 193.675781 335.085938 193.515625 C 333.132812 192.925781 331.660156 191.304688 331.257812 189.304688 C 324.160156 153.828125 304.109375 146.335938 303.265625 146.035156 C 301.058594 145.253906 299.53125 143.140625 299.53125 140.800781 L 299.53125 132.898438 C 299.53125 129.871094 301.96875 127.40625 304.996094 127.367188 C 335.496094 126.980469 346.023438 141.15625 349.605469 149.652344 C 356.136719 165.113281 350.019531 182.722656 340.601562 192.132812 C 339.550781 193.183594 338.136719 193.753906 336.6875 193.753906 Z M 313.074219 138.722656 C 320.253906 143.253906 331.890625 153.503906 338.886719 174.777344 C 341.496094 168.296875 342.207031 160.578125 339.410156 153.960938 C 335.699219 145.171875 326.664062 139.980469 313.074219 138.722656 Z M 313.074219 138.722656 " fill-opacity="1" fill-rule="nonzero"/><path fill="#472b29" d="M 334.070312 492.316406 C 334.046875 492.316406 334.023438 492.316406 333.992188 492.316406 C 310.457031 491.851562 287.941406 490.523438 267.054688 488.359375 C 264.890625 488.136719 263.308594 486.191406 263.53125 484.019531 C 263.753906 481.84375 265.632812 480.257812 267.871094 480.492188 C 288.535156 482.636719 310.835938 483.957031 334.144531 484.414062 C 336.324219 484.453125 338.0625 486.261719 338.015625 488.445312 C 337.984375 490.601562 336.222656 492.316406 334.070312 492.316406 Z M 334.070312 492.316406 " fill-opacity="1" fill-rule="nonzero"/><path fill="#472b29" d="M 370.929688 492.316406 C 368.777344 492.316406 367.015625 490.601562 366.976562 488.445312 C 366.9375 486.261719 368.667969 484.460938 370.847656 484.414062 C 398.429688 483.867188 425.398438 482.058594 448.835938 479.167969 C 450.988281 478.890625 452.972656 480.4375 453.242188 482.605469 C 453.507812 484.769531 451.96875 486.746094 449.800781 487.007812 C 426.101562 489.929688 398.859375 491.765625 371.007812 492.308594 C 370.976562 492.316406 370.953125 492.316406 370.929688 492.316406 Z M 370.929688 492.316406 " fill-opacity="1" fill-rule="nonzero"/><path fill="#472b29" d="M 474.269531 483.347656 C 472.386719 483.347656 470.71875 481.996094 470.378906 480.082031 C 470 477.933594 471.429688 475.886719 473.582031 475.507812 C 494.949219 471.738281 511.417969 467.011719 521.195312 461.851562 C 523.125 460.832031 525.519531 461.574219 526.542969 463.5 C 527.5625 465.429688 526.816406 467.824219 524.890625 468.84375 C 514.390625 474.382812 497.125 479.378906 474.957031 483.292969 C 474.726562 483.324219 474.5 483.347656 474.269531 483.347656 Z M 474.269531 483.347656 " fill-opacity="1" fill-rule="nonzero"/><path fill="#472b29" d="M 534.328125 456.933594 C 532.144531 456.933594 530.375 455.164062 530.375 452.984375 C 530.375 448.644531 520.714844 441.230469 493.488281 434.582031 C 491.371094 434.070312 490.066406 431.929688 490.585938 429.808594 C 491.101562 427.683594 493.234375 426.386719 495.363281 426.910156 C 524.242188 433.953125 538.28125 442.480469 538.28125 452.984375 C 538.28125 455.164062 536.511719 456.933594 534.328125 456.933594 Z M 534.328125 456.933594 " fill-opacity="1" fill-rule="nonzero"/><path fill="#472b29" d="M 318.871094 421.976562 C 316.75 421.976562 315.003906 420.300781 314.925781 418.167969 C 314.847656 415.988281 316.546875 414.152344 318.726562 414.074219 C 340.40625 413.285156 363.210938 413.269531 384.945312 414.027344 C 387.125 414.105469 388.832031 415.933594 388.753906 418.113281 C 388.683594 420.292969 386.816406 422.042969 384.667969 421.921875 C 363.125 421.171875 340.507812 421.1875 319.011719 421.96875 C 318.972656 421.976562 318.917969 421.976562 318.871094 421.976562 Z M 318.871094 421.976562 " fill-opacity="1" fill-rule="nonzero"/><path fill="#472b29" d="M 170.671875 456.933594 C 168.488281 456.933594 166.71875 455.164062 166.71875 452.984375 C 166.71875 442.464844 180.808594 433.917969 209.796875 426.871094 C 211.890625 426.355469 214.058594 427.652344 214.570312 429.777344 C 215.085938 431.90625 213.789062 434.039062 211.664062 434.550781 C 184.324219 441.199219 174.625 448.636719 174.625 452.984375 C 174.625 455.164062 172.855469 456.933594 170.671875 456.933594 Z M 170.671875 456.933594 " fill-opacity="1" fill-rule="nonzero"/><path fill="#472b29" d="M 237.339844 484.460938 C 237.132812 484.460938 236.921875 484.445312 236.707031 484.414062 C 212.484375 480.535156 193.488281 475.445312 181.785156 469.699219 C 179.828125 468.734375 179.019531 466.371094 179.976562 464.410156 C 180.941406 462.449219 183.296875 461.644531 185.265625 462.601562 C 196.277344 468.007812 214.492188 472.851562 237.957031 476.605469 C 240.113281 476.953125 241.578125 478.976562 241.238281 481.132812 C 240.929688 483.070312 239.246094 484.460938 237.339844 484.460938 Z M 237.339844 484.460938 " fill-opacity="1" fill-rule="nonzero"/></svg>